<svg width="299" height="298" viewBox="0 0 299 298" fill="none" xmlns="http://www.w3.org/2000/svg">
<path d="M93.4312 162.798C85.6207 154.988 85.6207 142.324 93.4312 134.514L135.858 92.0875C143.668 84.2771 156.331 84.2771 164.142 92.0875L206.568 134.514C214.379 142.324 214.379 154.988 206.568 162.798L164.142 205.225C156.331 213.035 143.668 213.035 135.858 205.225L93.4312 162.798Z" fill="black"/>
<path d="M135 30.2359C135 32.7476 133.131 34.8581 130.654 35.2776C76.3531 44.476 35 91.7362 35 148.656C35 205.576 76.3531 252.835 130.655 262.034C133.131 262.453 135 264.564 135 267.075V292.392C135 295.349 132.441 297.666 129.512 297.266C56.3619 287.275 0 224.549 0 148.656C0 72.7634 56.3619 10.0362 129.512 0.0452511C132.441 -0.354867 135 1.96259 135 4.91929V30.2359Z" fill="black"/>
<path d="M293.737 163.656C296.693 163.656 299.011 166.213 298.611 169.143C289.536 235.595 236.939 288.191 170.487 297.266C167.557 297.666 165 295.349 165 292.392V267.075C165 264.564 166.868 262.453 169.344 262.034C217.357 253.901 255.246 216.013 263.379 168C263.798 165.524 265.908 163.656 268.42 163.656H293.737Z" fill="black"/>
<path d="M165 4.91929C165 1.96259 167.557 -0.355048 170.487 0.0450401C236.939 9.12052 289.536 61.7172 298.611 128.169C299.011 131.099 296.693 133.656 293.737 133.656H268.42C265.908 133.656 263.798 131.789 263.379 129.312C255.246 81.2991 217.357 43.4099 169.344 35.2773C166.868 34.8579 165 32.7476 165 30.2359V4.91929Z" fill="black"/>
</svg>
