<svg width="641" height="673" viewBox="0 0 641 673" fill="none" xmlns="http://www.w3.org/2000/svg">
<g clip-path="url(#clip0_1_2)">
<path d="M-5.84777 1278.1C-5.85044 1270.67 22.4148 1253.45 68.1961 1225.53C180.972 1156.79 390.888 1028.82 391.944 899.58C391.947 899.259 391.948 898.932 391.948 898.611C391.948 846.745 357.911 798.932 290.759 756.475C230.777 718.547 203.877 691.26 208.513 673.043C215.269 646.521 285.717 641.943 367.289 636.639C468.627 630.052 583.484 622.584 600.58 570.137C612.761 532.776 574.367 477.632 483.193 401.591C404.511 335.971 371.527 288.371 382.36 256.055C398.828 206.936 515.177 201.331 627.697 195.908C681.467 193.319 737.067 190.639 779.397 183.109C826.584 174.715 852.383 161 858.267 141.18C868.363 107.168 821.24 53.0615 714.199 -24.2251L714.785 -25.036C822.215 52.5317 869.46 106.999 859.225 141.464C845.885 186.397 739.927 191.503 627.747 196.908C515.561 202.313 399.557 207.903 383.308 256.373C372.623 288.247 405.505 335.497 483.833 400.821C575.359 477.157 613.852 532.655 601.531 570.448C584.224 623.539 469.008 631.028 367.355 637.637C286.171 642.915 216.059 647.473 209.481 673.291C204.969 691.017 231.723 717.96 291.293 755.628C358.751 798.281 392.948 846.383 392.948 898.611C392.948 898.937 392.947 899.261 392.944 899.589C392.696 929.909 380.913 962.236 357.92 995.669C338.272 1024.24 309.835 1054.46 273.401 1085.49C206.849 1142.18 127.012 1190.85 68.7174 1226.39C26.1988 1252.31 -4.85871 1271.24 -4.86137 1278.01C-4.86137 1278.2 -4.83484 1278.39 -4.78017 1278.57C-4.40924 1279.79 -2.21711 1281.16 6.11075 1280.78L6.15476 1281.78C-1.2479 1282.12 -5.02804 1281.19 -5.73737 1278.86C-5.80924 1278.62 -5.84777 1278.36 -5.84777 1278.1Z" fill="#9ECCDA"/>
<path d="M-20.8187 1287.29C-20.8213 1279.82 7.50142 1261.88 53.3228 1232.85C167.16 1160.74 379.056 1026.51 379.176 894.82C379.176 894.785 379.176 894.743 379.176 894.708C379.176 843.089 346.292 796.005 281.427 754.747C227.32 720.328 200.86 694.579 200.856 676.28C200.856 674.817 201.024 673.405 201.361 672.037C208.059 644.872 278.073 639.039 359.141 632.285C459.873 623.893 574.044 614.38 591.276 560.58C603.443 522.577 566.319 467.637 477.781 392.605C401.359 327.843 369.473 280.397 380.296 247.56C396.889 197.231 512.45 189.589 624.203 182.199C677.631 178.665 732.876 175.012 774.948 166.627C821.851 157.28 847.518 142.851 853.415 122.517C863.443 87.9303 817.68 34.1531 713.504 -41.8885L714.095 -42.6958C818.651 33.6235 864.527 87.764 854.375 122.795C841.015 168.863 735.734 175.825 624.27 183.196C512.846 190.565 397.63 198.184 381.247 247.873C370.567 280.279 402.35 327.372 478.427 391.843C567.307 467.165 604.535 522.449 592.228 560.885C574.793 615.321 460.268 624.863 359.224 633.281C278.54 640.004 208.859 645.808 202.333 672.276C197.888 690.309 223.941 716.993 281.964 753.903C347.133 795.355 380.176 842.729 380.176 894.708C380.176 894.745 380.176 894.783 380.176 894.82C380.148 925.709 368.427 958.861 345.34 993.357C325.613 1022.83 296.987 1054.16 260.253 1086.46C193.164 1145.45 112.648 1196.45 53.8587 1233.7C9.96407 1261.5 -21.7983 1281.61 -19.7453 1287.79C-19.3598 1288.98 -17.1906 1290.29 -9.04686 1289.77L-8.98379 1290.77C-16.2343 1291.23 -19.9557 1290.38 -20.6958 1288.1C-20.7786 1287.84 -20.8187 1287.57 -20.8187 1287.29Z" fill="#73D2F5"/>
<path d="M-35.7838 1296.84C-35.7879 1289.32 -7.39727 1270.66 38.4854 1240.5C153.217 1165.08 366.607 1024.81 366.607 890.933C366.607 890.672 366.605 890.431 366.604 890.169C366.293 839.136 334.539 793.037 272.223 753.149C219.557 719.437 193.803 693.951 193.8 675.476C193.8 673.989 193.967 672.551 194.299 671.155C200.928 643.328 270.547 636.231 351.156 628.012C451.333 617.797 564.877 606.223 582.24 551.029C594.392 512.417 558.516 457.659 472.583 383.624C398.385 319.7 367.583 272.403 378.391 239.041C395.109 187.465 509.933 177.768 620.976 168.391C674.088 163.905 729.007 159.267 770.841 150.015C817.481 139.701 843.025 124.545 848.931 103.679C858.885 68.5167 814.455 15.064 713.112 -59.7489L713.705 -60.5536C815.423 14.537 859.973 68.3459 849.892 103.952C836.521 151.191 731.863 160.029 621.06 169.387C510.343 178.737 395.856 188.405 379.343 239.351C368.661 272.295 399.377 319.236 473.235 382.867C559.505 457.193 595.475 512.311 583.195 551.329C565.635 607.151 451.743 618.761 351.257 629.007C271.027 637.187 201.737 644.251 195.272 671.387C190.916 689.671 216.26 716.14 272.761 752.308C335.381 792.389 367.291 838.771 367.604 890.163C367.605 890.417 367.607 890.679 367.607 890.933C367.607 1025.35 153.931 1165.81 39.0347 1241.33C-4.99727 1270.28 -36.8078 1291.13 -34.7026 1297.36C-34.3041 1298.52 -32.1546 1299.77 -24.189 1299.12L-24.1078 1300.12C-31.2119 1300.69 -34.8786 1299.92 -35.6478 1297.68C-35.7401 1297.42 -35.7838 1297.13 -35.7838 1296.84Z" fill="#9D9FD7"/>
<path d="M-50.7494 1306.74C-50.7494 1299.18 -22.2827 1279.79 23.6734 1248.49C139.332 1169.7 354.231 1023.3 354.231 887.275C354.231 886.717 354.228 886.18 354.221 885.623C353.573 835.268 322.931 790.205 263.143 751.688C211.899 718.673 186.836 693.443 186.833 674.799C186.833 673.292 186.996 671.829 187.323 670.407C193.876 641.904 263.131 633.529 343.319 623.831C442.997 611.776 555.975 598.112 573.471 541.481C585.591 502.263 550.953 447.679 467.591 374.616C405.157 319.903 374.493 277.179 374.491 244.699C374.489 239.724 375.208 234.996 376.641 230.495C393.483 177.637 507.628 165.869 618.015 154.487C670.839 149.041 725.463 143.408 767.08 133.279C813.481 121.985 838.911 106.087 844.823 84.6755C854.683 48.9579 811.573 -4.1885 713.028 -77.7901L713.628 -78.5906C812.54 -4.71453 855.772 48.7751 845.785 84.9418C832.411 133.387 728.32 144.119 618.117 155.483C508.051 166.831 394.236 178.565 377.595 230.799C366.932 264.26 396.587 311.061 468.249 373.864C551.943 447.215 586.672 502.135 574.427 541.777C556.74 599.027 443.419 612.732 343.439 624.824C263.624 634.476 194.695 642.813 188.299 670.631C184.029 689.184 208.693 715.419 263.685 750.847C323.772 789.559 354.569 834.899 355.221 885.609C355.228 886.161 355.231 886.721 355.231 887.273C355.231 1023.84 140.056 1170.41 24.2374 1249.31C-18.4983 1278.42 -49.7666 1299.73 -49.7693 1306.63C-49.7693 1306.87 -49.7333 1307.08 -49.6598 1307.29C-49.2494 1308.42 -47.1213 1309.6 -39.3281 1308.83L-39.2291 1309.82C-46.1906 1310.51 -49.8041 1309.82 -50.5999 1307.63C-50.6983 1307.35 -50.7494 1307.06 -50.7494 1306.74Z" fill="#A8A9DC"/>
<path d="M-65.7359 1317.01C-65.74 1309.41 -37.1863 1289.28 8.8641 1256.81C125.513 1174.57 342.045 1021.91 342.045 883.737C342.045 882.881 342.037 882.049 342.021 881.192C341.059 831.564 311.504 787.548 254.176 750.367C200.28 715.412 176.153 689.041 180.427 669.797C186.895 640.6 255.824 630.932 335.636 619.736C434.867 605.817 547.339 590.041 564.964 531.933C577.043 492.116 543.625 437.704 462.8 365.604C392.979 303.324 364.271 256.327 375.044 221.921C392.007 167.745 505.531 153.88 615.319 140.472C667.884 134.052 722.24 127.415 763.66 116.393C809.844 104.104 835.169 87.4489 841.084 65.4751C850.844 29.1995 809.032 -23.6375 713.248 -96.0489L713.851 -96.8473C809.997 -24.162 851.928 29.0219 842.049 65.7349C828.676 115.423 725.099 128.072 615.44 141.464C505.968 154.835 392.768 168.659 375.999 222.22C365.357 256.209 393.968 302.865 463.465 364.859C544.612 437.244 578.124 491.996 565.921 532.224C548.109 590.943 435.303 606.767 335.775 620.727C256.331 631.871 187.721 641.495 181.403 670.013C177.243 688.815 201.221 714.828 254.72 749.528C312.344 786.901 342.052 831.192 343.02 881.175C343.037 882.024 343.045 882.884 343.045 883.736C343.045 1022.43 126.248 1175.28 9.44144 1257.63C-34.9171 1288.91 -66.9707 1311.51 -64.64 1317.57C-64.2171 1318.67 -62.1135 1319.79 -54.4854 1318.89L-54.3676 1319.88C-61.192 1320.69 -64.752 1320.07 -65.5744 1317.93C-65.6827 1317.64 -65.7359 1317.34 -65.7359 1317.01Z" fill="#A3A5DA"/>
<path d="M-80.7213 1327.64C-80.7213 1320.01 -52.0734 1299.13 -5.91352 1265.49C112.749 1179 333.639 1017.99 330.009 876.881C328.757 828.02 300.269 785.056 245.336 749.18C192.921 714.944 169.457 688.819 173.619 669.316C179.993 639.405 248.632 628.428 328.109 615.717C426.943 599.909 538.962 581.995 556.719 522.368C568.758 481.948 536.533 427.715 458.208 356.56C390.532 295.08 362.859 248.225 373.596 213.312C390.681 157.779 503.644 141.797 612.888 126.342C665.223 118.937 719.339 111.281 760.582 99.3558C806.571 86.0579 831.802 68.6307 837.714 46.0792C847.364 9.25366 806.826 -43.2745 713.772 -114.507L714.38 -115.301C807.791 -43.7953 848.452 9.0818 838.682 46.3328C825.32 97.2974 722.202 111.886 613.028 127.332C504.094 142.744 391.451 158.68 374.552 213.605C363.936 248.105 391.521 294.627 458.881 355.82C537.517 427.26 569.834 481.828 557.678 522.653C539.74 582.883 427.391 600.851 328.268 616.704C249.153 629.357 180.828 640.285 174.596 669.524C170.531 688.56 193.852 714.357 245.883 748.341C301.108 784.408 329.748 827.647 331.009 876.855C331.039 878.007 331.053 879.16 331.053 880.312C331.053 1021.14 112.523 1180.41 -5.32392 1266.29C-49.8625 1298.75 -82.0521 1322.2 -79.6187 1328.22C-79.1863 1329.29 -77.1026 1330.35 -69.6349 1329.32L-69.4958 1330.31C-76.189 1331.24 -79.6999 1330.69 -80.5453 1328.59C-80.6625 1328.3 -80.7213 1327.99 -80.7213 1327.64Z" fill="#B0E5F1"/>
<path d="M-95.7374 1338.65C-95.7374 1330.98 -66.9759 1309.33 -20.677 1274.49C99.3308 1184.18 322.72 1016.05 318.176 872.691C316.656 824.641 289.213 782.732 236.608 748.125C185.651 714.601 162.833 688.705 166.885 668.971C173.157 638.333 241.543 626.029 320.725 611.783C419.212 594.063 530.84 573.977 548.731 512.785C560.712 471.788 529.672 417.72 453.822 347.495C388.264 286.8 361.603 240.076 372.304 204.668C389.512 147.743 501.967 129.621 610.719 112.095C662.851 103.693 716.756 95.0052 757.843 82.162C803.663 67.8375 828.807 49.623 834.716 26.4755C844.258 -10.8869 804.964 -63.1161 714.603 -133.191L715.216 -133.981C805.926 -63.6364 845.338 -11.0724 835.684 26.723C829.6 50.5604 804.96 68.4797 758.142 83.1161C716.987 95.9812 663.044 104.675 610.878 113.082C502.428 130.559 390.288 148.631 373.26 204.957C362.68 239.965 389.251 286.351 454.502 346.761C530.659 417.268 561.796 471.667 549.691 513.067C531.625 574.852 419.675 594.995 320.903 612.767C242.077 626.949 174.001 639.197 167.864 669.173C163.904 688.453 186.583 714.017 237.157 747.291C290.051 782.085 317.644 824.265 319.176 872.66C323.735 1016.55 100.077 1184.87 -20.0759 1275.29C-63.1827 1307.73 -94.7639 1331.5 -94.7666 1338.51C-94.7666 1338.77 -94.7212 1339.03 -94.6291 1339.24C-94.1879 1340.28 -92.1254 1341.28 -84.8092 1340.12L-84.653 1341.11C-91.2187 1342.15 -94.6811 1341.68 -95.5494 1339.63C-95.6744 1339.33 -95.7374 1339 -95.7374 1338.65Z" fill="#5D7BC6"/>
<path d="M-110.777 1350.04C-110.78 1342.33 -81.8958 1319.91 -35.4401 1283.85C85.9707 1189.62 311.969 1014.24 306.515 868.625C304.749 821.424 278.327 780.572 227.981 747.205C178.465 714.385 156.299 688.72 160.22 668.763C166.381 637.379 234.549 623.731 313.48 607.925C411.673 588.264 522.969 565.979 540.995 503.179C552.925 461.603 523.043 407.707 449.633 338.397C395.452 287.247 368.817 245.811 368.815 212.445C368.813 206.725 369.596 201.247 371.157 195.992C388.489 137.639 500.491 117.347 608.805 97.7251C660.761 88.312 714.487 78.5792 755.436 64.8011C801.107 49.4344 826.177 30.4151 832.079 6.65574C841.496 -31.2375 803.433 -83.162 715.732 -152.095L716.351 -152.88C804.393 -83.6803 842.565 -31.4203 833.049 6.89688C826.975 31.3484 802.415 50.0495 755.755 65.7489C714.737 79.5505 660.975 89.2901 608.984 98.7093C500.967 118.278 389.272 138.513 372.116 196.276C361.571 231.784 387.151 278.033 450.32 337.671C524.027 407.26 554.004 461.487 541.956 503.453C523.761 566.841 412.151 589.188 313.676 608.905C235.097 624.64 167.235 638.229 161.201 668.956C157.36 688.484 179.393 713.8 228.533 746.372C279.163 779.927 305.736 821.047 307.513 868.587C312.949 1014.71 86.7254 1190.29 -34.8264 1284.64C-78.092 1318.23 -109.805 1342.84 -109.809 1349.89C-109.809 1350.17 -109.761 1350.41 -109.662 1350.64C-109.214 1351.65 -107.174 1352.59 -100.007 1351.32L-99.8317 1352.29C-106.274 1353.44 -109.689 1353.04 -110.577 1351.04C-110.71 1350.75 -110.777 1350.41 -110.777 1350.04Z" fill="#9FA5D2"/>
<path d="M-125.845 1361.8C-125.847 1354.07 -96.8374 1330.87 -50.2135 1293.58C72.6561 1195.31 301.377 1012.4 295.028 864.695C293.043 818.375 267.621 778.58 219.469 746.415C174.972 716.691 153.208 692.701 153.205 673.3C153.205 671.733 153.348 670.197 153.632 668.689C159.673 636.545 227.657 621.531 306.375 604.147C404.325 582.515 515.345 557.997 533.511 493.541C545.381 451.416 516.64 397.677 445.632 329.267C393.435 278.98 367.767 237.875 367.764 204.332C367.764 198.415 368.563 192.736 370.155 187.28C387.613 127.459 499.22 104.97 607.152 83.2219C714.899 61.5115 816.671 41.0041 829.815 -13.4026C839.097 -51.8104 802.249 -103.434 717.175 -171.239L717.799 -172.021C803.207 -103.949 840.16 -51.9912 830.787 -13.1677C824.725 11.9177 800.235 31.4172 753.711 48.199C712.807 62.9527 659.196 73.7557 607.351 84.2021C499.709 105.892 388.404 128.319 371.115 187.56C360.616 223.556 385.213 269.671 446.327 328.547C517.624 397.235 546.457 451.295 534.473 493.813C516.145 558.845 404.815 583.431 306.591 605.124C228.219 622.431 160.533 637.379 154.615 668.875C150.903 688.621 172.3 713.705 220.025 745.584C268.457 777.936 294.028 817.996 296.028 864.652C302.385 1012.91 73.4174 1195.99 -49.5879 1294.36C-94.7707 1330.5 -127.45 1356.61 -124.725 1362.41C-124.271 1363.39 -122.252 1364.27 -115.225 1362.88L-115.029 1363.85C-121.357 1365.11 -124.726 1364.79 -125.633 1362.83C-125.774 1362.52 -125.845 1362.19 -125.845 1361.8Z" fill="#8BA6DB"/>
<path d="M-140.968 1373.91C-140.968 1366.55 -115.455 1345.2 -64.9931 1303.66C59.3867 1201.27 290.936 1010.71 283.709 860.911C281.528 815.499 257.08 776.756 211.049 745.757C164.364 714.324 143.443 689.163 147.108 668.757C153.021 635.835 220.86 619.433 299.411 600.443C397.171 576.807 507.975 550.019 526.284 483.865C538.093 441.185 510.471 387.62 441.833 320.096C391.584 270.665 366.869 229.895 366.867 196.192C366.865 190.072 367.68 184.191 369.305 178.527C386.893 117.202 498.159 92.4875 605.761 68.587C713.257 44.7094 814.793 22.1568 827.909 -33.6864C837.047 -72.5896 801.391 -123.917 718.907 -190.611L719.536 -191.388C802.348 -124.429 838.119 -72.7672 828.883 -33.4578C822.839 -7.7234 798.408 12.5901 751.999 30.4703C711.191 46.1932 657.704 58.0735 605.979 69.5631C498.661 93.4 387.691 118.048 370.267 178.803C359.804 215.268 383.445 261.256 442.536 319.384C511.455 387.184 539.164 441.076 527.248 484.131C508.781 550.852 397.673 577.715 299.645 601.413C221.435 620.323 153.889 636.652 148.091 668.935C144.517 688.903 165.287 713.739 211.608 744.929C257.916 776.113 282.509 815.119 284.709 860.863C291.909 1011.2 60.1587 1201.93 -64.3587 1304.43C-107.989 1340.35 -139.993 1366.69 -139.996 1373.79C-139.996 1374.08 -139.941 1374.35 -139.832 1374.57C-139.371 1375.52 -137.374 1376.33 -130.481 1374.83L-130.268 1375.8C-136.483 1377.16 -139.808 1376.91 -140.732 1375C-140.888 1374.68 -140.968 1374.32 -140.968 1373.91Z" fill="#ADCEDD"/>
<path d="M-156.124 1386.45C-156.127 1379.07 -130.472 1357 -79.7812 1314.09C46.168 1207.49 280.669 1009.03 272.557 857.272C270.2 812.801 246.708 775.113 202.735 745.255C160.78 716.764 140.261 693.255 140.259 673.601C140.259 672.035 140.389 670.495 140.649 668.976C146.428 635.253 214.159 617.444 292.585 596.821C390.201 571.151 500.844 542.057 519.303 474.159C531.055 430.948 504.529 377.548 438.229 310.897C389.895 262.311 366.116 221.88 366.113 188.039C366.112 181.711 366.944 175.619 368.601 169.741C386.325 106.868 497.308 79.8922 604.636 53.8042C711.944 27.7219 813.3 3.08545 826.383 -54.2349C835.369 -93.6177 800.887 -144.648 720.959 -210.24L721.593 -211.013C801.841 -145.157 836.439 -93.8026 827.357 -54.012C821.415 -27.9718 796.317 -6.20361 750.633 12.5375C709.9 29.247 656.508 42.2251 604.873 54.7755C497.824 80.7959 387.129 107.702 369.563 170.013C359.152 206.941 381.843 252.797 438.939 310.192C505.513 377.12 532.115 430.843 520.268 474.421C501.657 542.877 390.719 572.049 292.839 597.788C214.748 618.323 147.305 636.057 141.636 669.144C138.187 689.308 158.356 713.908 203.297 744.427C247.543 774.471 271.181 812.42 273.556 857.219C281.609 1009.45 46.9467 1208.14 -79.136 1314.86C-122.983 1351.97 -155.153 1379.2 -155.156 1386.32C-155.156 1386.63 -155.098 1386.88 -154.984 1387.12C-154.52 1388.03 -152.544 1388.79 -145.777 1387.16L-145.545 1388.13C-151.655 1389.6 -154.937 1389.41 -155.876 1387.56C-156.04 1387.24 -156.124 1386.87 -156.124 1386.45Z" fill="#69CFF5"/>
<path d="M-171.331 1399.39C-171.333 1391.97 -145.525 1369.19 -94.5801 1324.89C30.6575 1215.98 261.808 1014.97 261.808 862.236C261.808 859.397 261.729 856.581 261.567 853.776C259.057 810.268 236.497 773.625 194.512 744.868C153.798 716.979 133.887 693.709 133.884 673.941C133.884 672.381 134.008 670.845 134.255 669.328C139.891 634.792 207.547 615.548 285.887 593.264C383.411 565.523 493.948 534.081 512.563 464.395C524.24 420.675 498.808 367.436 434.805 301.64C379.411 244.695 357.572 198.659 368.036 160.903C385.904 96.4473 496.659 67.1781 603.767 38.8719C710.943 10.5479 812.174 -16.2052 825.222 -75.0412C834.056 -114.887 800.724 -165.617 723.317 -230.129L723.959 -230.897C801.679 -166.123 835.116 -115.069 826.197 -74.8245C820.273 -48.1084 795.218 -25.4645 749.599 -5.59792C708.92 12.1161 655.594 26.2099 604.022 39.8391C497.186 68.0724 386.715 97.2677 369 161.171C358.635 198.559 380.396 244.275 435.523 300.943C499.791 367.011 525.31 420.559 513.53 464.653C494.767 534.888 383.941 566.412 286.16 594.227C208.148 616.416 140.775 635.581 135.244 669.488C131.92 689.815 151.499 714.192 195.077 744.043C237.332 772.984 260.037 809.885 262.565 853.719C271.457 1007.94 33.7695 1214.6 -93.9222 1325.64C-138.008 1363.99 -170.362 1392.12 -170.365 1399.25C-170.365 1399.56 -170.307 1399.83 -170.188 1400.05C-169.719 1400.95 -167.767 1401.64 -161.121 1399.91L-160.868 1400.88C-166.877 1402.44 -170.12 1402.33 -171.072 1400.52C-171.244 1400.2 -171.329 1399.81 -171.331 1399.39Z" fill="#5876C3"/>
<path d="M-186.588 1412.73C-186.589 1405.29 -160.62 1381.77 -109.398 1336.05C17.3054 1222.95 251.02 1014.34 251.02 859.625C251.02 856.535 250.927 853.476 250.739 850.428C248.099 807.903 226.447 772.301 186.385 744.615C143.805 715.184 124.679 690.723 127.923 669.821C133.405 634.46 201.025 613.756 279.321 589.784C376.805 559.936 487.296 526.105 506.08 454.584C517.692 410.36 493.328 357.297 431.596 292.349C386.997 245.431 365.044 205.703 365.041 171.649C365.041 164.889 365.907 158.356 367.631 152.031C385.647 85.9541 496.221 54.3531 603.156 23.7932C710.256 -6.81404 811.416 -35.7234 824.424 -96.1172C833.103 -136.407 800.903 -186.837 725.984 -250.283L726.631 -251.045C801.857 -187.34 834.168 -136.592 825.401 -95.9068C819.497 -68.4958 794.473 -44.9568 748.899 -23.9421C708.255 -5.20207 654.967 10.0271 603.431 24.7547C496.764 55.2391 386.464 86.7604 368.596 152.293C358.283 190.119 379.129 235.703 432.321 291.66C494.312 356.88 518.755 410.257 507.047 454.837C488.121 526.899 377.348 560.816 279.613 590.74C201.639 614.615 134.297 635.233 128.912 669.975C125.724 690.441 144.72 714.601 186.953 743.792C227.281 771.663 249.077 807.519 251.736 850.367C251.925 853.423 252.02 856.511 252.02 859.612C252.02 1014.79 18.0947 1223.59 -108.732 1336.8C-153.076 1376.37 -185.628 1405.43 -185.631 1412.59C-185.631 1412.89 -185.568 1413.17 -185.444 1413.4C-184.972 1414.25 -183.041 1414.89 -176.51 1413.04L-176.24 1414.01C-182.152 1415.68 -185.356 1415.64 -186.32 1413.88C-186.5 1413.55 -186.588 1413.17 -186.588 1412.73Z" fill="#85C3D9"/>
<path d="M-201.924 1426.48C-201.925 1419.03 -175.797 1394.76 -124.296 1347.63C6.68145 1227.73 250.472 1004.53 240.069 847.244C237.323 805.719 216.557 771.149 178.352 744.499C137.104 715.723 118.569 691.503 121.651 670.461C126.975 634.257 194.592 612.067 272.885 586.372C370.373 554.377 480.87 518.115 499.83 444.715C511.375 400.02 488.06 347.12 428.552 282.999C377.015 227.465 356.999 181.707 367.356 143.103C385.534 75.3656 495.99 41.3969 602.807 8.54585C709.888 -24.3849 811.03 -55.4896 823.998 -117.475C832.511 -158.192 801.427 -208.309 728.958 -270.7L729.611 -271.457C802.38 -208.808 833.578 -158.372 824.975 -117.27C819.092 -89.1495 794.09 -64.6964 748.536 -42.514C707.907 -22.7297 654.627 -6.34427 603.102 9.50155C496.543 42.2724 386.356 76.1584 368.321 143.363C358.056 181.608 378 227.057 429.286 282.319C489.046 346.708 512.442 399.909 500.798 444.964C481.7 518.895 370.928 555.248 273.196 587.323C195.219 612.913 127.875 635.013 122.64 670.608C119.616 691.249 138.019 715.141 178.924 743.679C217.391 770.513 238.3 805.335 241.068 847.18C251.504 1004.94 7.48011 1228.36 -123.621 1348.36C-170.185 1390.99 -203.804 1421.79 -200.779 1427.13C-200.392 1427.81 -198.736 1428.64 -191.976 1426.59L-191.685 1427.55C-197.507 1429.31 -200.672 1429.33 -201.646 1427.63C-201.832 1427.31 -201.924 1426.92 -201.924 1426.48Z" fill="#91DBDF"/>
<path d="M-217.314 1440.64C-217.319 1433.17 -191.007 1408.15 -139.172 1359.53C-75.2613 1299.58 21.3202 1208.99 98.5362 1115.36C140.863 1064.03 173.352 1016.62 195.098 974.443C220.554 925.068 232.144 881.264 229.555 844.225C226.719 803.711 206.816 770.164 170.4 744.515C130.464 716.385 112.482 692.416 115.43 671.248C120.588 634.185 188.239 610.479 266.572 583.029C364.116 548.847 474.675 510.104 493.828 434.779C505.308 389.624 483.03 336.9 425.716 273.596C376.059 218.752 356.932 173.129 367.235 134.135C385.582 64.701 495.966 28.3224 602.716 -6.85833C709.835 -42.1599 811.012 -75.5036 823.937 -139.123C832.295 -180.241 802.298 -230.051 732.242 -291.4L732.9 -292.153C803.251 -230.544 833.35 -180.427 824.918 -138.923C819.056 -110.074 794.062 -84.6864 748.507 -61.3109C707.871 -40.4599 654.574 -22.8948 603.03 -5.90835C496.532 29.1885 386.41 65.4802 368.202 134.389C357.988 173.04 377.046 218.352 426.456 272.924C484.013 336.496 506.367 389.52 494.796 435.025C475.512 510.871 364.684 549.708 266.903 583.973C188.879 611.315 121.495 634.928 116.42 671.387C113.524 692.141 131.375 715.804 170.975 743.697C207.65 769.528 227.695 803.327 230.552 844.155C233.164 881.376 221.528 925.36 195.987 974.901C174.208 1017.14 141.682 1064.62 99.3082 1116C22.0508 1209.68 -74.5597 1300.29 -138.488 1360.25C-183.389 1402.37 -216.361 1433.29 -216.364 1440.48C-216.365 1440.8 -216.3 1441.07 -216.168 1441.29C-215.781 1441.95 -214.14 1442.72 -207.488 1440.55L-207.179 1441.49C-212.914 1443.37 -216.044 1443.47 -217.028 1441.8C-217.22 1441.48 -217.314 1441.09 -217.314 1440.64Z" fill="#A7CCDC"/>
<path d="M-232.789 1455.21C-232.792 1447.75 -206.296 1421.95 -154.128 1371.85C-89.3854 1309.68 8.45208 1215.73 86.7067 1119.05C129.609 1066.05 162.517 1017.26 184.516 974.027C210.273 923.411 221.943 878.772 219.187 841.375C216.281 801.88 197.22 769.341 162.528 744.66C123.887 717.169 106.468 693.463 109.259 672.179C114.247 634.245 181.965 608.996 260.375 579.757C358.021 543.347 468.697 502.079 488.055 424.785C499.48 379.189 478.212 326.641 423.049 264.135C383.819 219.68 364.491 181.075 364.488 146.891C364.488 139.423 365.411 132.17 367.249 125.108C385.781 53.936 496.151 15.1062 602.888 -22.4443C710.099 -60.162 811.364 -95.788 824.251 -161.076C832.437 -202.572 803.523 -252.067 735.842 -312.392L736.507 -313.139C804.473 -252.559 833.492 -202.759 825.232 -160.883C819.391 -131.289 794.394 -104.947 748.814 -80.3552C708.154 -58.4172 654.808 -39.65 603.219 -21.5011C496.729 15.963 386.615 54.7021 368.217 125.36C358.055 164.395 376.235 209.573 423.8 263.473C479.196 326.245 500.528 379.096 489.025 425.028C469.539 502.832 358.603 544.197 260.724 580.695C182.616 609.82 115.16 634.972 110.251 672.308C107.508 693.18 124.795 716.587 163.108 743.845C198.053 768.707 217.256 801.496 220.184 841.301C222.948 878.883 211.247 923.7 185.408 974.48C163.377 1017.77 130.431 1066.63 87.4841 1119.68C9.19075 1216.4 -88.6759 1310.38 -153.434 1372.57C-200.668 1417.93 -234.804 1450.69 -231.641 1455.87C-231.256 1456.49 -229.632 1457.2 -223.081 1454.92L-222.752 1455.87C-228.408 1457.84 -231.503 1458 -232.495 1456.39C-232.692 1456.07 -232.789 1455.68 -232.789 1455.21Z" fill="#ACE4F0"/>
<path d="M-248.34 1470.23C-248.343 1462.73 -221.652 1436.16 -169.121 1384.56C-103.522 1320.11 -4.38895 1222.72 74.9428 1122.95C118.441 1068.25 151.787 1018.05 174.052 973.764C200.125 921.9 211.865 876.449 208.975 838.695C206.021 800.231 187.776 768.687 154.748 744.945C117.379 718.083 100.517 694.628 103.148 673.257C107.96 634.441 175.78 607.615 254.309 576.552C352.103 537.868 462.945 494.024 482.528 414.719C493.888 368.703 473.625 316.328 420.577 254.607C374.592 201.103 357.203 155.769 367.407 116.022C386.137 43.0771 496.543 1.75363 603.315 -38.2093C710.675 -78.3927 812.083 -116.348 824.93 -183.347C832.95 -225.192 805.092 -274.369 739.752 -333.681L740.424 -334.423C806.044 -274.856 834.003 -225.373 825.912 -183.157C820.091 -152.801 795.08 -125.485 749.452 -99.6516C708.744 -76.6026 655.325 -56.6084 603.664 -37.2724C497.133 2.60052 386.976 43.8312 368.375 116.27C358.259 155.68 375.58 200.717 421.335 253.956C474.611 315.94 494.945 368.604 483.497 414.959C463.792 494.764 352.696 538.709 254.676 577.481C176.444 608.427 108.879 635.152 104.141 673.381C101.545 694.363 118.285 717.503 155.331 744.132C188.611 768.056 206.995 799.845 209.972 838.619C212.881 876.552 201.101 922.181 174.945 974.213C152.649 1018.57 119.267 1068.82 75.7254 1123.57C-3.64364 1223.39 -102.805 1320.8 -168.42 1385.27C-213.952 1430 -247.396 1462.85 -247.4 1470.04C-247.4 1470.36 -247.332 1470.63 -247.193 1470.85C-246.808 1471.45 -245.198 1472.12 -238.744 1469.72L-238.397 1470.67C-243.974 1472.73 -247.038 1472.96 -248.037 1471.39C-248.238 1471.07 -248.338 1470.68 -248.34 1470.23Z" fill="#5364B8"/>
<path d="M-263.985 1485.65C-263.985 1478.16 -237.089 1450.79 -184.171 1397.64C-117.689 1330.87 -17.2197 1229.97 63.2241 1127.06C107.339 1070.63 141.139 1019.01 163.685 973.659C190.092 920.536 201.941 874.28 198.901 836.188C195.916 798.756 178.467 768.196 147.036 745.36C110.919 719.119 94.5854 695.919 97.0801 674.485C101.708 634.771 169.665 606.336 248.353 573.411C346.343 532.409 457.407 485.937 477.233 404.576C488.543 358.16 469.264 305.964 418.291 245.012C374.093 192.159 357.548 146.976 367.711 106.876C386.657 32.1235 497.148 -11.738 604.001 -54.1563C711.568 -96.8573 813.169 -137.189 825.984 -205.936C833.849 -248.107 807.024 -296.968 743.98 -355.287L744.66 -356.021C807.976 -297.451 834.9 -248.3 826.968 -205.752C821.164 -174.616 796.127 -146.304 750.427 -119.202C709.651 -95.0197 656.129 -73.7729 604.371 -53.226C497.751 -10.9016 387.501 32.864 368.68 107.122C358.604 146.885 375.081 191.781 419.057 244.369C470.249 305.584 489.592 358.068 478.205 404.813C458.259 486.664 346.947 533.24 248.739 574.333C170.341 607.137 102.635 635.468 98.0734 674.601C95.6121 695.667 111.828 718.541 147.625 744.551C179.301 767.568 196.888 798.372 199.899 836.109C202.957 874.373 191.069 920.813 164.581 974.104C142.004 1019.52 108.168 1071.19 64.012 1127.68C-16.4708 1230.63 -116.964 1331.56 -183.462 1398.35C-231.428 1446.52 -266.068 1481.32 -262.841 1486.27C-262.459 1486.85 -260.865 1487.45 -254.501 1484.96L-254.136 1485.88C-259.641 1488.05 -262.673 1488.35 -263.677 1486.81C-263.883 1486.51 -263.985 1486.12 -263.985 1485.65Z" fill="#ADB2D9"/>
<path d="M-279.716 1501.52C-279.72 1494.03 -252.615 1465.87 -199.296 1411.16C-131.905 1342.03 -30.0625 1237.54 51.5373 1131.43C96.2933 1073.23 130.569 1020.17 153.415 973.737C180.176 919.343 192.132 872.283 188.971 833.869C185.969 797.467 169.289 767.872 139.395 745.908C104.513 720.279 88.7 697.389 91.0507 675.859C95.4947 635.236 163.625 605.16 242.515 570.335C340.745 526.969 452.084 477.817 472.176 394.361C483.439 347.563 465.131 295.553 416.195 235.355C382.039 193.337 365.193 155.961 365.192 121.901C365.191 113.634 366.183 105.567 368.16 97.6702C387.34 21.0713 497.968 -25.3766 604.953 -70.2954C712.776 -115.566 814.62 -158.327 827.405 -228.853C835.105 -271.331 809.303 -319.859 748.516 -377.193L749.203 -377.921C810.253 -320.335 836.152 -271.512 828.389 -228.675C822.6 -196.743 797.527 -167.416 751.733 -139.02C710.871 -113.681 657.221 -91.1568 605.34 -69.3735C498.583 -24.55 388.189 21.7994 369.131 97.913C359.088 138.017 374.737 182.769 416.972 234.724C466.117 295.18 484.495 347.473 473.148 394.595C452.94 478.533 341.361 527.791 242.917 571.248C164.312 605.951 96.4253 635.919 92.044 675.968C89.752 697.065 105.415 719.7 139.985 745.101C170.124 767.245 186.94 797.083 189.968 833.788C193.145 872.385 181.153 919.62 154.311 974.18C131.437 1020.67 97.1267 1073.79 52.3307 1132.04C-29.3052 1238.2 -131.172 1342.71 -198.58 1411.87C-244.819 1459.31 -278.785 1494.15 -278.789 1501.32C-278.789 1501.64 -278.719 1501.91 -278.576 1502.12C-278.195 1502.68 -276.619 1503.23 -270.337 1500.61L-269.955 1501.55C-275.393 1503.8 -278.396 1504.17 -279.404 1502.68C-279.612 1502.37 -279.716 1501.99 -279.716 1501.52Z" fill="#AABFE7"/>
<path d="M-295.549 1517.84C-295.551 1510.33 -268.212 1481.36 -214.444 1425.04C-146.119 1353.48 -42.8625 1245.33 39.9201 1135.98C85.3307 1075.99 120.096 1021.48 143.252 973.963C170.38 918.292 182.465 870.448 179.184 831.734C176.181 796.364 160.249 767.723 131.832 746.604C98.1574 721.576 82.8561 698.939 85.0694 677.391C89.3254 635.847 157.664 604.089 236.795 567.32C335.309 521.541 446.969 469.655 467.352 384.063C478.581 336.909 461.221 285.081 414.281 225.62C373.552 174.024 358.659 129.135 368.749 88.389C388.187 9.91091 499 -39.1683 606.164 -86.6317C714.3 -134.527 816.44 -179.765 829.208 -252.111C836.753 -294.871 811.956 -343.059 753.392 -399.427L754.087 -400.147C812.907 -343.529 837.796 -295.048 830.193 -251.937C824.413 -219.193 799.287 -188.831 753.377 -159.113C712.405 -132.593 658.601 -108.764 606.568 -85.7177C499.624 -38.3521 389.04 10.6271 369.72 88.6292C359.708 129.056 374.54 173.664 415.067 225C462.208 284.717 479.627 336.819 468.324 384.293C447.831 470.359 335.937 522.352 237.216 568.227C158.361 604.868 90.2614 636.513 86.0641 677.492C83.8894 698.659 99.0614 721.001 132.428 745.801C161.085 767.098 177.151 795.981 180.18 831.649C183.492 870.541 171.361 918.568 144.151 974.401C120.968 1021.97 86.1681 1076.54 40.7187 1136.58C-42.0999 1245.98 -145.379 1354.15 -213.72 1425.73C-262.483 1476.8 -297.709 1513.69 -294.415 1518.43C-294.035 1518.96 -292.475 1519.47 -286.271 1516.73L-285.869 1517.65C-291.319 1520.05 -294.207 1520.47 -295.233 1519C-295.444 1518.69 -295.549 1518.31 -295.549 1517.84Z" fill="#A3E1EE"/>
<path d="M-311.493 1534.6C-311.496 1527.09 -283.928 1497.29 -229.705 1439.36C-160.417 1365.33 -55.7092 1253.46 28.3081 1140.79C74.4014 1078.98 109.681 1022.99 133.167 974.381C160.688 917.419 172.919 868.769 169.528 829.785C166.54 795.439 151.335 767.728 124.335 747.42C91.8534 722.988 77.0628 700.651 79.1281 679.067C83.1934 636.595 151.771 603.125 231.179 564.371C330.024 516.129 442.057 461.453 462.757 373.68C473.957 326.189 457.533 274.544 412.545 215.801C373.5 164.815 359.413 120.075 369.48 79.0322C389.199 -1.35888 500.244 -53.1203 607.633 -103.177C659.807 -127.496 713.756 -152.644 754.793 -180.327C800.605 -211.231 825.657 -242.436 831.381 -275.727C838.777 -318.741 814.963 -366.589 758.577 -422.008L759.277 -422.721C815.915 -367.055 839.825 -318.917 832.367 -275.557C826.593 -241.984 801.403 -210.563 755.352 -179.497C714.251 -151.771 660.264 -126.606 608.055 -102.27C500.88 -52.3131 390.056 -0.655211 370.451 79.2703C360.461 120.002 374.489 164.463 413.34 215.193C458.521 274.189 475.005 326.109 463.729 373.911C442.921 462.144 330.663 516.931 231.617 565.269C152.48 603.892 84.1361 637.247 80.1241 679.161C78.0841 700.331 92.7521 722.413 124.936 746.621C152.172 767.107 167.511 795.057 170.525 829.699C173.931 868.857 161.667 917.689 134.067 974.816C110.553 1023.49 75.2414 1079.53 29.1108 1141.39C-54.9411 1254.11 -159.672 1366 -228.974 1440.04C-278.161 1492.6 -313.684 1530.57 -310.361 1535.16C-310.06 1535.57 -308.672 1536.23 -302.311 1533.29L-301.892 1534.2C-307.283 1536.69 -310.144 1537.17 -311.173 1535.75C-311.387 1535.45 -311.493 1535.07 -311.493 1534.6Z" fill="#93C5D7"/>
<path d="M-327.549 1551.83C-327.551 1544.32 -299.736 1513.67 -245.029 1454.09C-174.752 1377.55 -68.5504 1261.87 16.7374 1145.84C63.5308 1082.17 99.3428 1024.68 123.175 974.969C151.103 916.707 163.504 867.269 160.009 828.024C157.048 794.695 142.545 767.897 116.905 748.372C85.5868 724.524 71.3134 702.464 73.2214 680.885C77.0948 637.477 145.948 602.257 225.672 561.477C324.889 510.727 437.344 453.204 458.391 363.217C469.571 315.407 454.071 263.947 410.995 205.905C373.595 155.513 360.3 110.927 370.351 69.5984C390.376 -12.7391 501.704 -67.2328 609.367 -119.931C661.743 -145.568 715.901 -172.077 757.088 -200.991C803.071 -233.269 828.207 -265.555 833.932 -299.692C841.184 -342.931 818.336 -390.428 764.085 -444.911L764.795 -445.616C819.289 -390.889 842.231 -343.109 834.919 -299.527C829.147 -265.112 803.876 -232.613 757.663 -200.172C716.412 -171.215 662.217 -144.687 609.807 -119.033C502.351 -66.436 391.236 -12.0474 371.323 69.8349C361.345 110.858 374.585 155.169 411.797 205.309C455.059 263.601 470.619 315.323 459.364 363.445C438.212 453.883 325.539 511.517 226.128 562.367C146.667 603.013 78.0414 638.116 74.2174 680.973C72.3294 702.181 86.4867 723.953 117.512 747.575C143.384 767.279 158.019 794.315 161.005 827.936C164.515 867.356 152.083 916.973 124.076 975.403C100.217 1025.17 64.3747 1082.71 17.5427 1146.43C-67.777 1262.5 -174.001 1378.2 -244.293 1454.76C-290.071 1504.63 -326.628 1544.44 -326.632 1551.61C-326.632 1551.93 -326.563 1552.17 -326.424 1552.36C-326.125 1552.76 -324.751 1553.37 -318.461 1550.32L-318.024 1551.21C-323.36 1553.8 -326.197 1554.35 -327.227 1552.96C-327.441 1552.67 -327.549 1552.29 -327.549 1551.83Z" fill="#ABC0E8"/>
<path d="M-343.727 1569.51C-343.728 1562 -315.659 1530.51 -260.447 1469.24C-189.155 1390.12 -81.417 1270.57 5.18016 1151.12C52.6988 1085.57 89.0615 1026.56 113.255 975.736C141.615 916.16 154.187 865.935 150.612 826.455C147.689 794.133 133.867 768.229 109.531 749.459C79.3588 726.185 65.5602 704.405 67.3482 682.857C71.0282 638.507 140.19 601.499 220.27 558.647C319.9 505.333 432.824 444.907 454.251 352.667C465.431 304.553 450.831 253.279 409.623 195.916C373.836 146.104 361.323 101.672 371.367 60.0776C391.726 -24.2375 503.382 -81.5136 611.36 -136.903C663.963 -163.887 718.356 -191.789 759.715 -221.959C805.892 -255.643 831.127 -289.031 836.86 -324.032C843.968 -367.46 822.079 -414.613 769.92 -468.177L770.637 -468.875C823.031 -415.068 845.017 -367.635 837.847 -323.869C832.068 -288.597 806.704 -254.997 760.304 -221.151C718.883 -190.935 664.454 -163.015 611.818 -136.013C504.039 -80.726 392.591 -23.5563 372.339 60.313C362.368 101.608 374.829 145.772 410.435 195.333C451.819 252.941 466.471 304.481 455.224 352.893C433.695 445.575 320.559 506.115 220.742 559.528C140.918 602.241 71.9802 639.131 68.3442 682.941C66.5775 704.125 80.2575 725.619 110.141 748.667C134.708 767.613 148.659 793.755 151.608 826.364C155.191 866.017 142.595 916.425 114.159 976.167C89.9388 1027.05 53.5455 1086.11 5.9895 1151.71C-80.6384 1271.2 -188.398 1390.77 -259.704 1469.91C-305.913 1521.19 -342.811 1562.13 -342.815 1569.28C-342.816 1569.59 -342.748 1569.84 -342.609 1570.01C-342.313 1570.4 -340.955 1570.96 -334.727 1567.79L-334.273 1568.68C-339.557 1571.37 -342.373 1571.97 -343.403 1570.63C-343.619 1570.35 -343.727 1569.97 -343.727 1569.51Z" fill="#B3B6E2"/>
<path d="M-360.024 1587.65C-360.027 1580.16 -331.695 1547.8 -275.952 1484.83C-203.617 1403.09 -94.3051 1279.59 -6.35558 1156.66C41.9135 1089.2 78.8468 1028.65 103.419 976.701C132.227 915.801 144.991 864.792 141.347 825.091C138.474 793.768 125.31 768.736 102.222 750.689C73.1682 727.983 59.8615 706.467 61.5082 684.987C64.9989 639.681 134.503 600.844 214.98 555.873C315.066 499.947 428.506 436.557 450.348 342.028C461.528 293.632 447.824 242.543 408.443 185.845C374.232 136.591 362.487 92.3063 372.532 50.4599C393.258 -35.8661 505.287 -95.977 613.628 -154.108C666.482 -182.468 721.136 -211.792 762.686 -243.243C809.08 -278.36 834.426 -312.871 840.175 -348.747C847.158 -392.347 826.199 -439.143 776.091 -491.804L776.815 -492.493C827.154 -439.592 848.203 -392.516 841.163 -348.589C835.371 -312.445 809.899 -277.725 763.29 -242.445C721.676 -210.948 666.99 -181.604 614.102 -153.227C505.955 -95.1994 394.126 -35.1969 373.504 50.6938C363.527 92.247 375.226 136.267 409.266 185.275C448.816 242.216 462.575 293.563 451.322 342.253C429.38 437.213 315.735 500.717 215.468 556.745C135.242 601.576 65.9562 640.292 62.5055 685.064C60.8775 706.188 74.0669 727.417 102.836 749.903C126.151 768.125 139.443 793.391 142.343 825C145.994 864.887 133.208 916.068 104.324 977.128C79.7255 1029.13 42.7602 1089.73 -5.54103 1157.24C-93.5222 1280.21 -202.855 1403.75 -275.203 1485.48C-323.856 1540.45 -362.275 1583.84 -358.913 1588.15C-358.621 1588.52 -357.276 1589.03 -351.105 1585.73L-350.635 1586.61C-355.873 1589.41 -358.669 1590.07 -359.697 1588.76C-359.916 1588.49 -360.024 1588.12 -360.024 1587.65Z" fill="#9DDAF1"/>
<path d="M-376.461 1606.29C-376.464 1598.81 -347.856 1565.57 -291.555 1500.84C-218.148 1416.44 -107.217 1288.91 -17.8734 1162.45C31.1654 1093.04 68.6907 1030.93 93.6601 977.847C122.936 915.612 135.908 863.823 132.205 823.917C129.393 793.576 116.865 769.396 94.9721 752.048C67.0148 729.899 54.1561 708.68 55.7001 687.256C59.0028 640.996 128.877 600.291 209.787 553.157C310.365 494.565 424.364 428.155 446.66 331.303C457.864 282.639 445.029 231.732 407.431 175.675C374.76 126.965 363.771 82.8298 373.829 40.7506C394.953 -47.615 507.404 -110.615 616.151 -171.54C669.281 -201.305 724.222 -232.085 765.986 -264.845C812.622 -301.427 838.097 -337.081 843.869 -373.848C850.741 -417.593 830.692 -464.028 782.589 -515.803L783.321 -516.484C831.648 -464.467 851.776 -417.76 844.858 -373.693C839.044 -336.665 813.447 -300.803 766.603 -264.059C724.777 -231.251 669.804 -200.452 616.64 -170.667C508.08 -109.847 395.824 -46.9567 374.801 40.9829C364.811 82.7793 375.755 126.653 408.261 175.117C446.023 231.417 458.897 282.579 447.635 331.528C425.243 428.801 311.044 495.327 210.291 554.021C129.627 601.012 59.9628 641.595 56.6974 687.327C55.1921 708.437 67.9134 729.335 95.5908 751.264C117.709 768.789 130.363 793.201 133.201 823.825C136.916 863.911 123.917 915.873 94.5654 978.273C69.5707 1031.41 32.0161 1093.57 -17.0572 1163.02C-106.429 1289.52 -217.38 1417.08 -290.8 1501.49C-339.936 1557.99 -378.72 1602.65 -375.36 1606.76C-375.071 1607.11 -373.741 1607.57 -367.624 1604.17L-367.137 1605.04C-372.332 1607.93 -375.107 1608.65 -376.136 1607.39C-376.352 1607.12 -376.461 1606.76 -376.461 1606.29Z" fill="#6E8BCF"/>
<path d="M-393.036 1625.41C-393.036 1617.93 -364.146 1583.81 -307.276 1517.32C-232.772 1430.2 -120.183 1298.56 -29.4009 1168.51C20.4309 1097.12 58.5709 1033.43 83.9549 979.2C113.722 915.612 126.911 863.039 123.171 822.953C120.426 793.576 108.512 770.225 87.7576 753.545C60.8776 731.944 48.5096 711.057 49.9082 689.681C53.0269 642.463 123.31 599.847 204.691 550.501C305.807 489.188 420.414 419.696 443.2 320.487C454.439 271.571 442.468 220.847 406.61 165.412C375.442 117.231 365.192 73.2469 375.278 30.939C396.835 -59.4954 509.747 -125.438 618.94 -189.209C672.37 -220.413 727.619 -252.68 769.616 -286.776C816.514 -324.851 842.135 -361.672 847.94 -399.341C854.704 -443.207 835.558 -489.271 789.414 -540.18L790.155 -540.851C836.514 -489.707 855.742 -443.369 848.928 -399.189C843.083 -361.263 817.346 -324.237 770.247 -286C728.19 -251.855 672.907 -219.569 619.444 -188.345C510.432 -124.68 397.71 -58.8473 376.25 31.1708C366.231 73.1964 376.438 116.929 407.448 164.869C443.462 220.543 455.472 271.52 444.176 320.711C421.294 420.332 306.495 489.941 205.21 551.355C124.067 600.557 53.9896 643.048 50.9056 689.748C49.5256 710.723 61.7762 731.383 88.3842 752.767C109.358 769.623 121.396 793.204 124.166 822.86C127.931 863.133 114.703 915.873 84.8602 979.625C59.4522 1033.9 21.2842 1097.64 -28.5826 1169.08C-119.39 1299.17 -232 1430.84 -306.516 1517.96C-354.132 1573.64 -392.144 1618.08 -392.146 1625.16C-392.146 1625.45 -392.08 1625.68 -391.944 1625.84C-391.722 1626.11 -390.515 1626.69 -384.275 1623.08L-383.772 1623.95C-388.928 1626.93 -391.686 1627.72 -392.712 1626.48C-392.928 1626.23 -393.036 1625.87 -393.036 1625.41Z" fill="#A8AED7"/>
<path d="M-409.769 1644.97C-409.772 1637.56 -381.935 1604.15 -323.095 1534.23C-247.465 1444.35 -133.172 1308.52 -40.9119 1174.82C69.0575 1015.45 121.284 896.812 114.263 822.188C111.596 793.764 100.274 771.221 80.6108 755.187C54.7788 734.119 42.8762 713.521 44.1495 692.256C47.0882 644.072 117.812 599.501 199.704 547.892C271.776 502.471 353.464 450.989 401.555 387.789C456.834 315.14 458.279 239.009 405.967 155.043C376.264 107.369 366.748 63.524 376.868 21.0068C398.899 -71.5255 512.318 -140.464 622.003 -207.133C675.756 -239.805 731.339 -273.591 773.591 -309.049C820.776 -348.648 846.556 -386.653 852.408 -425.236C859.076 -469.188 840.814 -514.888 796.586 -564.945L797.335 -565.607C841.772 -515.315 860.107 -469.355 853.396 -425.087C847.508 -386.251 821.614 -348.044 774.235 -308.284C731.924 -272.776 676.307 -238.971 622.522 -206.279C513.012 -139.716 399.776 -70.8874 377.842 21.2381C367.786 63.4823 377.262 107.077 406.815 154.515C459.372 238.873 457.912 315.375 402.351 388.395C354.15 451.74 272.382 503.272 200.238 548.737C118.579 600.2 48.0548 644.645 45.1482 692.317C43.8668 713.247 55.6788 733.564 81.2442 754.412C101.122 770.623 112.565 793.395 115.259 822.095C119.055 862.535 105.587 916.049 75.2348 981.163C49.3948 1036.59 10.5935 1101.94 -40.0879 1175.39C-132.374 1309.13 -246.688 1444.97 -322.331 1534.87C-370.453 1592.07 -408.867 1637.71 -408.871 1644.75C-408.871 1645.04 -408.805 1645.27 -408.671 1645.43C-408.452 1645.68 -407.257 1646.23 -401.06 1642.48L-400.543 1643.33C-405.665 1646.43 -408.407 1647.27 -409.431 1646.08C-409.656 1645.81 -409.769 1645.44 -409.769 1644.97Z" fill="#9B9ED7"/>
<path d="M-426.641 1665.09C-426.644 1657.69 -398.515 1623.41 -339.028 1551.59C-247.769 1441.43 -109.86 1274.93 -10.8811 1118.27C43.6227 1032 79.4894 959.02 95.7227 901.348C114.804 833.545 107.332 784.968 73.5094 756.96C48.7014 736.419 37.2267 716.137 38.4121 694.977C41.1747 645.831 112.369 599.264 194.805 545.347C266.884 498.203 348.579 444.768 397.225 380.043C453.149 305.635 455.856 228.612 405.497 144.569C383.999 108.687 374.567 75.762 374.564 45.2145C374.556 -66.9099 501.597 -147.148 625.328 -225.304C679.428 -259.479 735.371 -294.816 777.899 -331.664C825.393 -372.817 851.355 -412.028 857.263 -451.539C863.844 -495.555 846.456 -540.885 804.097 -590.112L804.856 -590.764C847.413 -541.304 864.877 -495.711 858.251 -451.391C852.305 -411.633 826.237 -372.224 778.555 -330.908C735.968 -294.011 679.993 -258.653 625.861 -224.459C468.827 -125.264 306.444 -22.6896 406.356 144.055C456.945 228.485 454.221 305.875 398.025 380.644C349.272 445.509 267.5 498.993 195.353 546.181C113.143 599.953 42.1441 646.391 39.4094 695.033C38.2267 715.871 49.6014 735.867 74.1467 756.189C108.304 784.472 115.887 833.401 96.6854 901.62C80.4254 959.384 44.52 1032.46 -10.036 1118.8C-109.049 1275.52 -246.983 1442.04 -338.256 1552.23C-388.916 1613.39 -428.928 1661.71 -425.553 1665.52C-425.339 1665.76 -424.159 1666.27 -418 1662.4L-417.469 1663.24C-422.628 1666.48 -425.269 1667.36 -426.305 1666.17C-426.528 1665.92 -426.641 1665.56 -426.641 1665.09Z" fill="#AEE4F0"/>
<path d="M-443.675 1685.72C-443.676 1678.33 -415.245 1643.16 -355.085 1569.43C-262.94 1456.48 -123.688 1285.78 -23.1212 1125.69C32.2575 1037.54 68.9722 963.124 86.0028 904.525C106.026 835.633 99.4469 786.631 66.4522 758.88C42.6429 738.852 31.6175 718.905 32.6909 697.848C35.2882 647.736 106.987 599.127 190.008 542.845C262.119 493.957 343.851 438.548 393.075 372.271C449.662 296.077 453.634 218.131 405.215 133.981C308.672 -33.8057 471.482 -140.529 628.924 -243.741C683.396 -279.449 739.722 -316.373 782.547 -354.64C830.376 -397.377 856.532 -437.815 862.509 -478.263C869.025 -522.325 852.483 -567.28 811.947 -615.692L812.715 -616.335C853.444 -567.689 870.058 -522.481 863.5 -478.117C857.486 -437.428 831.224 -396.793 783.214 -353.895C740.332 -315.577 683.975 -278.632 629.473 -242.904C472.416 -139.948 310.01 -33.4828 406.082 133.483C454.72 218.015 450.728 296.319 393.878 372.867C344.552 439.28 262.746 494.74 190.57 543.672C107.77 599.804 36.2615 648.284 33.6895 697.901C32.6362 718.6 43.5415 738.303 67.0948 758.115C100.42 786.144 107.108 835.499 86.9628 904.805C69.9068 963.492 33.1535 1037.99 -22.2744 1126.23C-122.873 1286.37 -262.149 1457.09 -354.31 1570.05C-403.518 1630.37 -442.788 1678.51 -442.792 1685.47C-442.792 1685.75 -442.728 1685.96 -442.597 1686.11C-442.447 1686.28 -441.379 1686.91 -435.096 1682.81L-434.549 1683.65C-439.681 1686.99 -442.309 1687.92 -443.341 1686.77C-443.563 1686.53 -443.675 1686.17 -443.675 1685.72Z" fill="#A5AAD5"/>
<path d="M-460.877 1706.85C-460.877 1699.49 -432.139 1663.43 -371.285 1587.73C-278.211 1471.96 -137.556 1297 -35.3598 1133.41C20.9187 1043.32 58.4961 967.45 76.3307 907.901C97.3014 837.888 91.6134 788.441 59.4294 760.929C36.5974 741.407 25.9814 721.747 26.9787 700.864C29.4187 649.787 101.653 599.095 185.296 540.4C257.471 489.751 339.275 432.344 389.095 364.488C446.373 286.476 451.611 207.58 405.112 123.286C386.365 89.303 378.071 57.6526 378.068 27.9197C378.057 -89.3896 507.133 -177.069 632.795 -262.443C687.659 -299.716 744.389 -338.26 787.532 -377.971C835.717 -422.323 862.088 -464.005 868.151 -505.401C874.607 -549.488 858.903 -594.069 820.139 -641.692L820.915 -642.324C859.863 -594.469 875.637 -549.635 869.14 -505.256C863.043 -463.625 836.571 -421.749 788.209 -377.236C745.012 -337.473 688.251 -298.909 633.357 -261.616C476.215 -154.853 313.725 -44.4553 405.987 122.803C452.696 207.471 447.435 286.721 389.901 365.08C339.983 433.068 258.108 490.525 185.869 541.219C102.444 599.763 30.3948 650.324 27.9774 700.911C27.0121 721.461 37.4961 740.861 60.0801 760.169C92.5894 787.963 98.3787 837.765 77.2894 908.187C59.4294 967.823 21.8134 1043.78 -34.5119 1133.94C-136.74 1297.58 -277.417 1472.56 -370.505 1588.36C-420.281 1650.27 -459.999 1699.68 -460.004 1706.6C-460.004 1706.87 -459.94 1707.08 -459.812 1707.21C-459.665 1707.37 -458.612 1707.96 -452.359 1703.75L-451.799 1704.57C-458.216 1708.91 -459.823 1708.68 -460.548 1707.89C-460.767 1707.65 -460.877 1707.31 -460.877 1706.85Z" fill="#4F61B6"/>
<path d="M-478.251 1728.53C-478.252 1721.2 -449.195 1684.21 -387.616 1606.52C-293.58 1487.88 -151.469 1308.58 -47.601 1141.42C9.59742 1049.37 48.0548 972.003 66.7028 911.475C88.6254 840.316 83.8335 790.403 52.4561 763.12C30.5708 744.093 20.3735 724.771 21.2895 704.028C23.5801 651.992 96.3788 599.172 180.673 538.013C252.941 485.579 334.851 426.148 385.289 356.684C443.28 276.817 449.791 196.931 405.188 112.455C387.757 79.4432 380.009 48.4724 380.005 19.2156C379.987 -100.759 510.194 -192.296 636.931 -281.42C692.21 -320.293 749.371 -360.491 792.855 -401.675C841.421 -447.673 868.027 -490.623 874.189 -532.973C880.603 -577.06 865.72 -621.267 828.683 -668.12L829.468 -668.74C866.684 -621.659 881.636 -577.201 875.179 -532.829C868.981 -490.247 842.277 -447.108 793.543 -400.949C750.007 -359.715 692.815 -319.496 637.505 -280.603C480.217 -169.995 317.575 -55.6234 406.072 111.988C450.871 196.832 444.337 277.065 386.099 357.271C335.567 426.864 253.588 486.344 181.26 538.821C97.1748 599.831 24.5575 652.517 22.2881 704.072C21.3961 724.469 31.4721 743.551 53.1121 762.364C84.8148 789.929 89.7081 840.193 67.6588 911.771C48.9854 972.379 10.4921 1049.82 -46.752 1141.95C-150.649 1309.16 -292.781 1488.48 -386.832 1607.15C-437.199 1670.69 -477.38 1721.39 -477.384 1728.25C-477.384 1728.53 -477.323 1728.73 -477.196 1728.87C-477.052 1729.01 -476.015 1729.56 -469.787 1725.21L-469.213 1726.03C-475.604 1730.49 -477.203 1730.32 -477.925 1729.55C-478.14 1729.32 -478.251 1728.97 -478.251 1728.53Z" fill="#93D5EF"/>
</g>
<defs>
<clipPath id="clip0_1_2">
<rect width="673" height="641" fill="white" transform="translate(641 2.86102e-05) rotate(90)"/>
</clipPath>
</defs>
</svg>
