<svg width="86" height="26" viewBox="0 0 86 26" fill="none" xmlns="http://www.w3.org/2000/svg">
<path d="M56.8563 12.312C56.1363 12.312 55.5563 12.232 55.1163 12.072C54.6763 11.912 54.3563 11.708 54.1563 11.46C53.9563 11.212 53.8563 10.956 53.8563 10.692C53.8563 10.444 53.9123 10.224 54.0243 10.032C54.1443 9.84801 54.2883 9.68801 54.4563 9.55201C54.6323 9.41601 54.8003 9.31601 54.9603 9.25201C54.7043 9.16401 54.5003 9.04801 54.3483 8.90401C54.2043 8.75201 54.1323 8.55201 54.1323 8.30401C54.1323 8.02401 54.2443 7.76401 54.4683 7.52401C54.6923 7.27601 54.9803 7.12401 55.3323 7.06801C54.9643 6.89201 54.6683 6.64801 54.4443 6.33601C54.2283 6.02401 54.1203 5.66001 54.1203 5.24401C54.1203 4.76401 54.2443 4.34801 54.4923 3.99601C54.7403 3.63601 55.0563 3.36001 55.4403 3.16801C55.8323 2.96801 56.2363 2.86801 56.6523 2.86801C56.9163 2.86801 57.1803 2.90801 57.4443 2.98801C57.7083 3.06001 57.9523 3.16801 58.1763 3.31201C58.2563 3.08801 58.3683 2.88801 58.5123 2.71201C58.6643 2.53601 58.8363 2.40001 59.0283 2.30401C59.2203 2.20001 59.4203 2.14801 59.6283 2.14801C59.8363 2.14801 59.9923 2.20401 60.0963 2.31601C60.2083 2.42001 60.2643 2.56401 60.2643 2.74801C60.2643 2.80401 60.2483 2.87201 60.2163 2.95201C60.1843 3.03201 60.1283 3.10001 60.0483 3.15601C59.9763 3.21201 59.8763 3.24001 59.7483 3.24001C59.6123 3.24001 59.5003 3.20001 59.4123 3.12001C59.3243 3.04001 59.2683 2.94001 59.2443 2.82001C59.0443 2.85201 58.8883 2.94801 58.7763 3.10801C58.6643 3.26001 58.5883 3.42801 58.5483 3.61201C58.7403 3.78801 58.8923 4.00001 59.0043 4.24801C59.1243 4.49601 59.1843 4.76001 59.1843 5.04001C59.1843 5.48801 59.0643 5.88801 58.8243 6.24001C58.5923 6.59201 58.2843 6.86801 57.9003 7.06801C57.5163 7.26001 57.1003 7.35601 56.6523 7.35601C56.5003 7.35601 56.3683 7.34801 56.2563 7.33201C56.1443 7.30801 56.0083 7.29601 55.8483 7.29601C55.5523 7.29601 55.3123 7.36801 55.1283 7.51201C54.9443 7.65601 54.8803 7.82801 54.9363 8.02801C55.0003 8.22001 55.1963 8.34401 55.5243 8.40001C55.8523 8.44801 56.2923 8.48401 56.8443 8.50801C57.4603 8.53201 57.9883 8.60401 58.4283 8.72401C58.8683 8.84401 59.2043 9.02801 59.4363 9.27601C59.6763 9.53201 59.7963 9.87601 59.7963 10.308C59.7963 10.628 59.7083 10.912 59.5323 11.16C59.3643 11.416 59.1363 11.628 58.8483 11.796C58.5683 11.964 58.2523 12.092 57.9003 12.18C57.5563 12.268 57.2083 12.312 56.8563 12.312ZM56.8443 11.844C57.5323 11.844 58.0683 11.716 58.4523 11.46C58.8363 11.204 59.0283 10.904 59.0283 10.56C59.0283 10.264 58.9283 10.036 58.7283 9.87601C58.5283 9.72401 58.2563 9.61601 57.9123 9.55201C57.5683 9.49601 57.1723 9.46401 56.7243 9.45601C56.5083 9.44801 56.2963 9.43601 56.0883 9.42001C55.8803 9.41201 55.6803 9.39201 55.4883 9.36001C55.2723 9.50401 55.1043 9.68001 54.9843 9.88801C54.8643 10.096 54.8043 10.316 54.8043 10.548C54.8043 10.94 54.9883 11.252 55.3563 11.484C55.7323 11.724 56.2283 11.844 56.8443 11.844ZM56.6883 6.92401C56.9843 6.92401 57.2283 6.85201 57.4203 6.70801C57.6203 6.56401 57.7683 6.36801 57.8643 6.12001C57.9683 5.87201 58.0203 5.59201 58.0203 5.28001C58.0203 4.92801 57.9683 4.60001 57.8643 4.29601C57.7603 3.99201 57.6043 3.74801 57.3963 3.56401C57.1963 3.38001 56.9403 3.28801 56.6283 3.28801C56.1963 3.28801 55.8603 3.45201 55.6203 3.78001C55.3883 4.10001 55.2723 4.50001 55.2723 4.98001C55.2723 5.36401 55.3283 5.70401 55.4403 6.00001C55.5523 6.28801 55.7123 6.51601 55.9203 6.68401C56.1363 6.84401 56.3923 6.92401 56.6883 6.92401Z" fill="#091C2C"/>
<path d="M46.6752 9.05998V8.69998C46.9232 8.69998 47.0952 8.63998 47.1912 8.51998C47.2872 8.39198 47.3432 8.21998 47.3592 8.00398C47.3752 7.77998 47.3832 7.52398 47.3832 7.23598L47.3952 4.49998C47.3952 4.37198 47.3952 4.24398 47.3952 4.11598C47.4032 3.98798 47.4192 3.85598 47.4432 3.71998C47.2992 3.72798 47.1552 3.73598 47.0112 3.74398C46.8752 3.75198 46.7352 3.75998 46.5912 3.76798V3.26398C46.9432 3.26398 47.2072 3.24798 47.3832 3.21598C47.5672 3.18398 47.7032 3.14398 47.7912 3.09598C47.8792 3.04798 47.9512 2.99598 48.0072 2.93998H48.3552C48.3632 2.99598 48.3672 3.05998 48.3672 3.13198C48.3752 3.20398 48.3832 3.28398 48.3912 3.37198C48.3992 3.45998 48.4032 3.55998 48.4032 3.67198C48.5792 3.51998 48.7712 3.38398 48.9792 3.26398C49.1952 3.14398 49.4192 3.04798 49.6512 2.97598C49.8912 2.90398 50.1272 2.86798 50.3592 2.86798C51.0552 2.86798 51.5632 3.08798 51.8832 3.52798C52.2032 3.95998 52.3632 4.63598 52.3632 5.55598V7.78798C52.3632 7.94798 52.3592 8.09198 52.3512 8.21998C52.3512 8.33998 52.3392 8.46798 52.3152 8.60398C52.4432 8.59598 52.5672 8.59198 52.6872 8.59198C52.8152 8.58398 52.9432 8.57598 53.0712 8.56798V9.05998H50.6232V8.69998C50.8712 8.69998 51.0432 8.63998 51.1392 8.51998C51.2352 8.39198 51.2912 8.21998 51.3072 8.00398C51.3232 7.77998 51.3312 7.52398 51.3312 7.23598V5.55598C51.3232 4.86798 51.2072 4.34798 50.9832 3.99598C50.7672 3.64398 50.4232 3.47198 49.9512 3.47998C49.6632 3.48798 49.3792 3.56398 49.0992 3.70798C48.8272 3.85198 48.5992 4.03598 48.4152 4.25998C48.4232 4.32398 48.4272 4.39598 48.4272 4.47598C48.4272 4.55598 48.4272 4.63998 48.4272 4.72798L48.4152 7.78798C48.4152 7.94798 48.4112 8.09198 48.4032 8.21998C48.4032 8.33998 48.3912 8.46798 48.3672 8.60398C48.4952 8.59598 48.6192 8.59198 48.7392 8.59198C48.8672 8.58398 48.9952 8.57598 49.1232 8.56798V9.05998H46.6752Z" fill="#091C2C"/>
<path d="M43.3002 8.69998C43.5482 8.69998 43.7202 8.63998 43.8162 8.51998C43.9122 8.39198 43.9682 8.21998 43.9842 8.00398C44.0002 7.77998 44.0082 7.52397 44.0082 7.23597V4.49997C44.0082 4.37197 44.0122 4.25198 44.0202 4.13998C44.0282 4.01998 44.0402 3.87998 44.0562 3.71997C43.9122 3.72797 43.7682 3.73598 43.6242 3.74398C43.4882 3.75198 43.3482 3.75997 43.2042 3.76797V3.26398C43.5562 3.26398 43.8282 3.24797 44.0202 3.21597C44.2122 3.18397 44.3562 3.14397 44.4522 3.09597C44.5562 3.04797 44.6362 2.99597 44.6922 2.93997H45.0402V7.78797C45.0402 7.94797 45.0362 8.09197 45.0282 8.21997C45.0282 8.33997 45.0162 8.46798 44.9922 8.60398C45.1202 8.59598 45.2442 8.59197 45.3642 8.59197C45.4922 8.58397 45.6202 8.57598 45.7482 8.56798V9.05997H43.3002V8.69998ZM44.4522 1.75197C44.2842 1.75197 44.1362 1.68397 44.0082 1.54797C43.8802 1.41197 43.8162 1.24397 43.8162 1.04397C43.8162 0.843975 43.8802 0.675975 44.0082 0.539975C44.1442 0.395975 44.2962 0.323975 44.4642 0.323975C44.6482 0.323975 44.8002 0.395975 44.9202 0.539975C45.0482 0.675975 45.1122 0.843975 45.1122 1.04397C45.1122 1.24397 45.0442 1.41197 44.9082 1.54797C44.7802 1.68397 44.6282 1.75197 44.4522 1.75197Z" fill="#091C2C"/>
<path d="M40.9156 9.25201C40.7316 9.25201 40.5436 9.224 40.3516 9.168C40.1596 9.12 39.9796 9.02 39.8116 8.868C39.6516 8.716 39.5236 8.496 39.4276 8.208C39.3316 7.912 39.2836 7.52401 39.2836 7.04401L39.3076 3.564L38.3836 3.576V3.06001C38.5916 3.052 38.8036 2.976 39.0196 2.832C39.2356 2.68 39.4276 2.476 39.5956 2.22C39.7716 1.964 39.8916 1.684 39.9556 1.38H40.3636V3.06001H42.3796V3.528L40.3636 3.552L40.3396 6.88801C40.3396 7.24801 40.3676 7.55601 40.4236 7.81201C40.4876 8.06001 40.5876 8.24801 40.7236 8.37601C40.8596 8.50401 41.0356 8.56801 41.2516 8.56801C41.4756 8.56801 41.6836 8.50401 41.8756 8.37601C42.0756 8.24801 42.2516 8.07201 42.4036 7.84801L42.7276 8.11201C42.5516 8.37601 42.3756 8.584 42.1996 8.736C42.0316 8.888 41.8676 9.00001 41.7076 9.07201C41.5476 9.15201 41.3996 9.20001 41.2636 9.21601C41.1276 9.24001 41.0116 9.25201 40.9156 9.25201Z" fill="#091C2C"/>
<path d="M35.2701 8.7C35.5181 8.7 35.69 8.64 35.786 8.52C35.882 8.392 35.938 8.22 35.954 8.004C35.97 7.78 35.9781 7.524 35.9781 7.236V1.56C35.9781 1.432 35.9781 1.312 35.9781 1.2C35.9861 1.08 35.998 0.94 36.014 0.78C35.87 0.788 35.7261 0.796 35.5821 0.804C35.4461 0.812 35.306 0.82 35.162 0.828V0.324C35.514 0.324 35.7861 0.308 35.9781 0.276C36.1781 0.244 36.3261 0.204 36.4221 0.156C36.5261 0.108 36.606 0.0560002 36.662 0H37.01L37.022 7.788C37.022 7.948 37.018 8.092 37.01 8.22C37.002 8.34 36.986 8.468 36.962 8.604C37.09 8.596 37.214 8.592 37.334 8.592C37.462 8.584 37.59 8.576 37.718 8.568V9.06H35.2701V8.7Z" fill="#091C2C"/>
<path d="M30.7619 9.252C30.3299 9.252 29.9659 9.172 29.6699 9.012C29.3819 8.852 29.1619 8.58 29.0099 8.196C28.8659 7.812 28.7939 7.292 28.7939 6.636V4.5C28.7939 4.372 28.7939 4.244 28.7939 4.116C28.8019 3.988 28.8179 3.856 28.8419 3.72C28.7059 3.728 28.5659 3.736 28.4219 3.744C28.2859 3.744 28.1499 3.748 28.0139 3.756V3.264H28.3859C28.7299 3.264 28.9779 3.232 29.1299 3.168C29.2899 3.096 29.4139 3.02 29.5019 2.94H29.8499V6.6C29.8499 7.288 29.9459 7.804 30.1379 8.148C30.3379 8.484 30.6739 8.648 31.1459 8.64C31.4499 8.632 31.7379 8.54 32.0099 8.364C32.2899 8.18 32.5139 7.964 32.6819 7.716V4.632C32.6819 4.44 32.6859 4.276 32.6939 4.14C32.7019 3.996 32.7179 3.856 32.7419 3.72C32.5979 3.728 32.4539 3.736 32.3099 3.744C32.1659 3.744 32.0219 3.748 31.8779 3.756V3.264H32.2499C32.5939 3.264 32.8419 3.232 32.9939 3.168C33.1539 3.096 33.2779 3.02 33.3659 2.94H33.7139L33.7019 7.476C33.7019 7.604 33.6979 7.784 33.6899 8.016C33.6819 8.248 33.6699 8.444 33.6539 8.604C33.7979 8.596 33.9419 8.588 34.0859 8.58C34.2299 8.572 34.3739 8.564 34.5179 8.556V9.06H32.8019C32.7779 8.924 32.7579 8.796 32.7419 8.676C32.7339 8.556 32.7259 8.444 32.7179 8.34C32.4699 8.588 32.1699 8.804 31.8179 8.988C31.4659 9.164 31.1139 9.252 30.7619 9.252Z" fill="#091C2C"/>
<path d="M25.1352 9.25198C24.7352 9.25198 24.3792 9.19598 24.0672 9.08398C23.7552 8.97998 23.4992 8.85998 23.2992 8.72398L23.3472 9.14398H22.8432L22.7712 7.07998H23.1432C23.1592 7.40798 23.2512 7.70398 23.4192 7.96798C23.5872 8.22398 23.8032 8.42398 24.0672 8.56798C24.3312 8.71198 24.6152 8.78398 24.9192 8.78398C25.1272 8.78398 25.3312 8.75198 25.5312 8.68798C25.7312 8.61598 25.8992 8.51198 26.0352 8.37598C26.1712 8.23198 26.2392 8.05198 26.2392 7.83598C26.2392 7.61198 26.1712 7.42798 26.0352 7.28398C25.9072 7.13198 25.7352 6.99998 25.5192 6.88798C25.3032 6.77598 25.0712 6.67198 24.8232 6.57598C24.5832 6.47998 24.3432 6.37998 24.1032 6.27598C23.8632 6.17198 23.6392 6.04798 23.4312 5.90398C23.2312 5.75998 23.0712 5.58398 22.9512 5.37598C22.8312 5.16798 22.7712 4.91198 22.7712 4.60798C22.7712 4.43998 22.8032 4.25598 22.8672 4.05598C22.9312 3.85598 23.0392 3.66798 23.1912 3.49198C23.3432 3.30798 23.5512 3.15998 23.8152 3.04798C24.0792 2.92798 24.4152 2.86798 24.8232 2.86798C25.0392 2.86798 25.2792 2.90398 25.5432 2.97598C25.8072 3.04798 26.0632 3.18398 26.3112 3.38398L26.2872 2.92798H26.7912V5.02798H26.4072C26.3912 4.74798 26.3272 4.47998 26.2152 4.22398C26.1032 3.95998 25.9392 3.74398 25.7232 3.57598C25.5072 3.39998 25.2272 3.31198 24.8832 3.31198C24.5152 3.31198 24.2272 3.40398 24.0192 3.58798C23.8112 3.77198 23.7072 3.98398 23.7072 4.22398C23.7072 4.47198 23.7832 4.67998 23.9352 4.84798C24.0952 5.00798 24.2992 5.14798 24.5472 5.26798C24.7952 5.38798 25.0592 5.50398 25.3392 5.61598C25.6432 5.74398 25.9392 5.88398 26.2272 6.03598C26.5152 6.18798 26.7512 6.37998 26.9352 6.61198C27.1192 6.83598 27.2112 7.12798 27.2112 7.48798C27.2112 7.88798 27.1072 8.21998 26.8992 8.48398C26.6992 8.74798 26.4392 8.93998 26.1192 9.05998C25.8072 9.18798 25.4792 9.25198 25.1352 9.25198Z" fill="#091C2C"/>
<path d="M15.3861 9.05998V8.69998C15.6341 8.69998 15.8061 8.63998 15.9021 8.51998C15.9981 8.39198 16.0541 8.21998 16.0701 8.00398C16.0861 7.77998 16.0941 7.52398 16.0941 7.23598L16.1061 4.49998C16.1061 4.37198 16.1061 4.24398 16.1061 4.11598C16.1141 3.98798 16.1301 3.85598 16.1541 3.71998C16.0101 3.72798 15.8661 3.73598 15.7221 3.74398C15.5861 3.75198 15.4461 3.75998 15.3021 3.76798V3.26398C15.6541 3.26398 15.9181 3.24798 16.0941 3.21598C16.2781 3.18398 16.4141 3.14398 16.5021 3.09598C16.5901 3.04798 16.6621 2.99598 16.7181 2.93998H17.0661C17.0741 2.99598 17.0781 3.05998 17.0781 3.13198C17.0861 3.20398 17.0941 3.28398 17.1021 3.37198C17.1101 3.45998 17.1141 3.55998 17.1141 3.67198C17.2901 3.51998 17.4821 3.38398 17.6901 3.26398C17.9061 3.14398 18.1301 3.04798 18.3621 2.97598C18.6021 2.90398 18.8381 2.86798 19.0701 2.86798C19.7661 2.86798 20.2741 3.08798 20.5941 3.52798C20.9141 3.95998 21.0741 4.63598 21.0741 5.55598V7.78798C21.0741 7.94798 21.0701 8.09198 21.0621 8.21998C21.0621 8.33998 21.0501 8.46798 21.0261 8.60398C21.1541 8.59598 21.2781 8.59198 21.3981 8.59198C21.5261 8.58398 21.6541 8.57598 21.7821 8.56798V9.05998H19.3341V8.69998C19.5821 8.69998 19.7541 8.63998 19.8501 8.51998C19.9461 8.39198 20.0021 8.21998 20.0181 8.00398C20.0341 7.77998 20.0421 7.52398 20.0421 7.23598V5.55598C20.0341 4.86798 19.9181 4.34798 19.6941 3.99598C19.4781 3.64398 19.1341 3.47198 18.6621 3.47998C18.3741 3.48798 18.0901 3.56398 17.8101 3.70798C17.5381 3.85198 17.3101 4.03598 17.1261 4.25998C17.1341 4.32398 17.1381 4.39598 17.1381 4.47598C17.1381 4.55598 17.1381 4.63998 17.1381 4.72798L17.1261 7.78798C17.1261 7.94798 17.1221 8.09198 17.1141 8.21998C17.1141 8.33998 17.1021 8.46798 17.0781 8.60398C17.2061 8.59598 17.3301 8.59198 17.4501 8.59198C17.5781 8.58398 17.7061 8.57598 17.8341 8.56798V9.05998H15.3861Z" fill="#091C2C"/>
<path d="M11.3426 9.25198C10.7826 9.25198 10.2746 9.12398 9.81863 8.86798C9.36263 8.60398 8.99863 8.24398 8.72663 7.78798C8.46263 7.32398 8.33063 6.79598 8.33063 6.20398C8.33063 5.57198 8.46263 5.00398 8.72663 4.49998C8.99063 3.99598 9.35063 3.59998 9.80663 3.31198C10.2626 3.01598 10.7746 2.86798 11.3426 2.86798C11.9026 2.86798 12.4106 3.00398 12.8666 3.27598C13.3226 3.53998 13.6866 3.89998 13.9586 4.35598C14.2306 4.81198 14.3666 5.33198 14.3666 5.91598C14.3666 6.53198 14.2306 7.09598 13.9586 7.60798C13.6946 8.11198 13.3346 8.51198 12.8786 8.80798C12.4226 9.10398 11.9106 9.25198 11.3426 9.25198ZM11.4386 8.77198C11.8626 8.77198 12.1986 8.65198 12.4466 8.41198C12.6946 8.17198 12.8706 7.85998 12.9746 7.47598C13.0866 7.09198 13.1426 6.68798 13.1426 6.26398C13.1426 5.90398 13.1066 5.55198 13.0346 5.20798C12.9706 4.85598 12.8666 4.53998 12.7226 4.25998C12.5786 3.97198 12.3906 3.74398 12.1586 3.57598C11.9346 3.40798 11.6626 3.32398 11.3426 3.32398C10.9266 3.32398 10.5866 3.44398 10.3226 3.68398C10.0586 3.92398 9.86263 4.23598 9.73463 4.61998C9.61463 5.00398 9.55463 5.41598 9.55463 5.85598C9.55463 6.35198 9.62263 6.82398 9.75863 7.27198C9.89463 7.71198 10.1026 8.07198 10.3826 8.35198C10.6626 8.63198 11.0146 8.77198 11.4386 8.77198Z" fill="#091C2C"/>
<path d="M6.744 3.33602C6.664 2.58402 6.4 2.00002 5.952 1.58402C5.512 1.16802 4.944 0.960018 4.248 0.960018C3.824 0.960018 3.424 1.05202 3.048 1.23602C2.68 1.41202 2.356 1.66802 2.076 2.00402C1.796 2.34002 1.576 2.74402 1.416 3.21602C1.256 3.68802 1.176 4.22002 1.176 4.81202C1.176 5.56402 1.32 6.22802 1.608 6.80402C1.896 7.38002 2.284 7.82802 2.772 8.14802C3.26 8.46802 3.8 8.62802 4.392 8.62802C4.912 8.62802 5.424 8.51202 5.928 8.28002C6.432 8.04002 6.844 7.69602 7.164 7.24802L7.476 7.50002C7.132 7.97202 6.76 8.33602 6.36 8.59202C5.96 8.84802 5.56 9.02002 5.16 9.10802C4.768 9.20402 4.408 9.25202 4.08 9.25202C3.48 9.25202 2.928 9.14402 2.424 8.92802C1.928 8.71202 1.496 8.41202 1.128 8.02802C0.768 7.63602 0.488 7.18402 0.288 6.67202C0.096 6.15202 0 5.59202 0 4.99202C0 4.42402 0.084 3.87202 0.252 3.33602C0.428 2.80002 0.688 2.31602 1.032 1.88402C1.376 1.45202 1.808 1.10802 2.328 0.852018C2.856 0.596018 3.468 0.468018 4.164 0.468018C4.612 0.468018 5.036 0.528018 5.436 0.648017C5.836 0.768017 6.22 0.952017 6.588 1.20002L6.528 0.552017H7.176V3.33602H6.744Z" fill="#091C2C"/>
<path d="M81.0836 25.312C80.8356 25.312 80.6236 25.252 80.4476 25.132C80.2716 25.012 80.1836 24.828 80.1836 24.58C80.1836 24.436 80.2316 24.304 80.3276 24.184C80.4236 24.064 80.5476 24.004 80.6996 24.004C80.8916 23.996 81.0196 24.056 81.0836 24.184C81.1556 24.312 81.1916 24.424 81.1916 24.52C81.1916 24.544 81.1916 24.568 81.1916 24.592C81.1916 24.624 81.1876 24.656 81.1796 24.688C81.2036 24.704 81.2476 24.712 81.3116 24.712C81.4076 24.712 81.5116 24.672 81.6236 24.592C81.7356 24.512 81.8356 24.396 81.9236 24.244C82.0276 24.068 82.1476 23.804 82.2836 23.452C82.4276 23.1 82.5876 22.68 82.7636 22.192L80.8916 18.184C80.6836 17.736 80.5316 17.38 80.4356 17.116C80.3476 16.852 80.2876 16.656 80.2556 16.528L79.6796 16.552V16.06H82.1636V16.42H82.1156C81.7796 16.444 81.5956 16.572 81.5636 16.804C81.5316 17.028 81.6236 17.372 81.8396 17.836L83.2436 20.848C83.4276 20.336 83.6036 19.832 83.7716 19.336C83.9396 18.832 84.1076 18.332 84.2756 17.836C84.3396 17.66 84.4036 17.48 84.4676 17.296C84.5396 17.104 84.6076 16.936 84.6716 16.792C84.7436 16.64 84.8076 16.544 84.8636 16.504L84.0356 16.552V16.06H85.9196V16.42C85.6236 16.532 85.3996 16.72 85.2476 16.984C85.1036 17.24 84.9556 17.572 84.8036 17.98L83.3036 22.168C83.0636 22.84 82.8436 23.408 82.6436 23.872C82.4436 24.344 82.2236 24.7 81.9836 24.94C81.7436 25.188 81.4436 25.312 81.0836 25.312Z" fill="#091C2C"/>
<path d="M72.9525 22.06V21.7C73.2005 21.7 73.3725 21.64 73.4685 21.52C73.5645 21.392 73.6205 21.22 73.6365 21.004C73.6525 20.78 73.6605 20.524 73.6605 20.236L73.6725 17.5C73.6725 17.372 73.6725 17.244 73.6725 17.116C73.6805 16.988 73.6965 16.856 73.7205 16.72C73.5765 16.728 73.4325 16.736 73.2885 16.744C73.1525 16.752 73.0125 16.76 72.8685 16.768V16.264C73.2205 16.264 73.4845 16.248 73.6605 16.216C73.8445 16.184 73.9805 16.144 74.0685 16.096C74.1565 16.048 74.2285 15.996 74.2845 15.94H74.6325C74.6405 15.996 74.6445 16.06 74.6445 16.132C74.6525 16.204 74.6605 16.284 74.6685 16.372C74.6765 16.46 74.6805 16.56 74.6805 16.672C74.8565 16.52 75.0485 16.384 75.2565 16.264C75.4725 16.144 75.6965 16.048 75.9285 15.976C76.1685 15.904 76.4045 15.868 76.6365 15.868C77.3325 15.868 77.8405 16.088 78.1605 16.528C78.4805 16.96 78.6405 17.636 78.6405 18.556V20.788C78.6405 20.948 78.6365 21.092 78.6285 21.22C78.6285 21.34 78.6165 21.468 78.5925 21.604C78.7205 21.596 78.8445 21.592 78.9645 21.592C79.0925 21.584 79.2205 21.576 79.3485 21.568V22.06H76.9005V21.7C77.1485 21.7 77.3205 21.64 77.4165 21.52C77.5125 21.392 77.5685 21.22 77.5845 21.004C77.6005 20.78 77.6085 20.524 77.6085 20.236V18.556C77.6005 17.868 77.4845 17.348 77.2605 16.996C77.0445 16.644 76.7005 16.472 76.2285 16.48C75.9405 16.488 75.6565 16.564 75.3765 16.708C75.1045 16.852 74.8765 17.036 74.6925 17.26C74.7005 17.324 74.7045 17.396 74.7045 17.476C74.7045 17.556 74.7045 17.64 74.7045 17.728L74.6925 20.788C74.6925 20.948 74.6885 21.092 74.6805 21.22C74.6805 21.34 74.6685 21.468 74.6445 21.604C74.7725 21.596 74.8965 21.592 75.0165 21.592C75.1445 21.584 75.2725 21.576 75.4005 21.568V22.06H72.9525Z" fill="#091C2C"/>
<path d="M70.4131 22.06C70.3891 21.924 70.3731 21.804 70.3651 21.7C70.3571 21.596 70.3451 21.488 70.3291 21.376C70.0571 21.648 69.7611 21.864 69.4411 22.024C69.1291 22.176 68.7971 22.252 68.4451 22.252C67.8371 22.252 67.3851 22.116 67.0891 21.844C66.7931 21.564 66.6451 21.224 66.6451 20.824C66.6451 20.456 66.7571 20.14 66.9811 19.876C67.2131 19.604 67.5091 19.384 67.8691 19.216C68.2371 19.04 68.6331 18.912 69.0571 18.832C69.4891 18.744 69.9051 18.704 70.3051 18.712V17.968C70.3051 17.688 70.2811 17.424 70.2331 17.176C70.1851 16.928 70.0811 16.724 69.9211 16.564C69.7611 16.404 69.5051 16.32 69.1531 16.312C68.9211 16.304 68.6811 16.348 68.4331 16.444C68.1931 16.54 68.0171 16.704 67.9051 16.936C67.9691 17 68.0091 17.076 68.0251 17.164C68.0491 17.244 68.0611 17.32 68.0611 17.392C68.0611 17.488 68.0211 17.6 67.9411 17.728C67.8611 17.848 67.7211 17.904 67.5211 17.896C67.3531 17.896 67.2251 17.84 67.1371 17.728C67.0491 17.608 67.0051 17.468 67.0051 17.308C67.0051 17.036 67.1051 16.792 67.3051 16.576C67.5131 16.36 67.7971 16.188 68.1571 16.06C68.5171 15.932 68.9251 15.868 69.3811 15.868C70.0531 15.868 70.5491 16.048 70.8691 16.408C71.1891 16.76 71.3451 17.32 71.3371 18.088C71.3371 18.384 71.3371 18.684 71.3371 18.988C71.3371 19.284 71.3331 19.584 71.3251 19.888C71.3251 20.184 71.3251 20.484 71.3251 20.788C71.3251 20.916 71.3211 21.044 71.3131 21.172C71.3051 21.3 71.2931 21.444 71.2771 21.604C71.4211 21.596 71.5611 21.588 71.6971 21.58C71.8411 21.572 71.9851 21.564 72.1291 21.556V22.06H70.4131ZM70.3051 19.12C70.0331 19.128 69.7451 19.164 69.4411 19.228C69.1451 19.284 68.8691 19.372 68.6131 19.492C68.3651 19.612 68.1611 19.772 68.0011 19.972C67.8491 20.164 67.7771 20.4 67.7851 20.68C67.8011 20.976 67.8971 21.2 68.0731 21.352C68.2571 21.496 68.4731 21.568 68.7211 21.568C69.0491 21.568 69.3331 21.508 69.5731 21.388C69.8211 21.26 70.0651 21.084 70.3051 20.86C70.2971 20.772 70.2931 20.676 70.2931 20.572C70.2931 20.468 70.2931 20.36 70.2931 20.248C70.2931 20.208 70.2931 20.08 70.2931 19.864C70.3011 19.648 70.3051 19.4 70.3051 19.12Z" fill="#091C2C"/>
<path d="M59.4969 25.12V24.76C59.7449 24.76 59.9169 24.696 60.0129 24.568C60.1089 24.448 60.1649 24.276 60.1809 24.052C60.1969 23.836 60.2049 23.584 60.2049 23.296L60.2289 17.5C60.2289 17.372 60.2289 17.244 60.2289 17.116C60.2369 16.988 60.2529 16.856 60.2769 16.72C60.1329 16.728 59.9889 16.736 59.8449 16.744C59.7089 16.752 59.5689 16.76 59.4249 16.768V16.264C59.7769 16.264 60.0409 16.248 60.2169 16.216C60.4009 16.184 60.5329 16.144 60.6129 16.096C60.7009 16.048 60.7729 15.996 60.8289 15.94H61.1889C61.1969 16.02 61.2049 16.116 61.2129 16.228C61.2209 16.332 61.2289 16.452 61.2369 16.588C61.4769 16.372 61.7609 16.2 62.0889 16.072C62.4249 15.936 62.7609 15.868 63.0969 15.868C63.5609 15.868 63.9929 15.988 64.3929 16.228C64.7929 16.468 65.1169 16.812 65.3649 17.26C65.6129 17.7 65.7369 18.228 65.7369 18.844C65.7369 19.524 65.5929 20.12 65.3049 20.632C65.0249 21.144 64.6529 21.544 64.1889 21.832C63.7249 22.112 63.2209 22.252 62.6769 22.252C62.3969 22.252 62.1369 22.216 61.8969 22.144C61.6649 22.08 61.4449 21.984 61.2369 21.856V23.848C61.2369 24.008 61.2329 24.148 61.2249 24.268C61.2249 24.396 61.2129 24.528 61.1889 24.664C61.3169 24.656 61.4409 24.648 61.5609 24.64C61.6889 24.64 61.8169 24.636 61.9449 24.628V25.12H59.4969ZM62.6529 21.772C63.0369 21.772 63.3649 21.656 63.6369 21.424C63.9169 21.184 64.1289 20.86 64.2729 20.452C64.4249 20.036 64.5009 19.564 64.5009 19.036C64.5009 18.604 64.4369 18.192 64.3089 17.8C64.1889 17.4 63.9929 17.076 63.7209 16.828C63.4569 16.58 63.1049 16.456 62.6649 16.456C62.3929 16.456 62.1289 16.524 61.8729 16.66C61.6249 16.788 61.4169 16.944 61.2489 17.128C61.2489 17.16 61.2489 17.208 61.2489 17.272C61.2569 17.328 61.2609 17.432 61.2609 17.584C61.2609 17.728 61.2609 17.948 61.2609 18.244C61.2609 18.532 61.2569 18.924 61.2489 19.42C61.2489 19.916 61.2489 20.544 61.2489 21.304C61.4489 21.456 61.6649 21.572 61.8969 21.652C62.1369 21.732 62.3889 21.772 62.6529 21.772Z" fill="#091C2C"/>
<path d="M48.8823 22.06V21.7C49.1303 21.7 49.3023 21.64 49.3983 21.52C49.4943 21.392 49.5503 21.22 49.5663 21.004C49.5823 20.78 49.5903 20.524 49.5903 20.236V17.5C49.5903 17.372 49.5903 17.244 49.5903 17.116C49.5983 16.988 49.6143 16.856 49.6383 16.72C49.4943 16.728 49.3503 16.736 49.2063 16.744C49.0703 16.752 48.9303 16.76 48.7863 16.768V16.264C49.1383 16.264 49.4023 16.248 49.5783 16.216C49.7623 16.184 49.8983 16.144 49.9863 16.096C50.0743 16.048 50.1463 15.996 50.2023 15.94H50.5503C50.5663 16.02 50.5743 16.112 50.5743 16.216C50.5823 16.32 50.5903 16.44 50.5983 16.576C50.8383 16.368 51.1143 16.2 51.4263 16.072C51.7383 15.936 52.0503 15.868 52.3623 15.868C52.7623 15.868 53.0983 15.94 53.3703 16.084C53.6423 16.228 53.8543 16.424 54.0063 16.672C54.2783 16.448 54.5903 16.26 54.9423 16.108C55.3023 15.948 55.6543 15.868 55.9983 15.868C56.6943 15.868 57.2063 16.08 57.5343 16.504C57.8623 16.92 58.0183 17.604 58.0023 18.556L57.9903 20.788C57.9903 20.948 57.9863 21.092 57.9783 21.22C57.9783 21.34 57.9663 21.468 57.9423 21.604C58.0703 21.596 58.1943 21.592 58.3143 21.592C58.4423 21.584 58.5703 21.576 58.6983 21.568V22.06H56.2503V21.7C56.4983 21.7 56.6703 21.64 56.7663 21.52C56.8623 21.392 56.9183 21.22 56.9343 21.004C56.9503 20.78 56.9583 20.524 56.9583 20.236V18.556C56.9583 17.868 56.8463 17.352 56.6223 17.008C56.4063 16.664 56.0623 16.496 55.5903 16.504C55.3423 16.504 55.0943 16.56 54.8463 16.672C54.5983 16.784 54.3823 16.924 54.1983 17.092C54.2383 17.22 54.2663 17.36 54.2823 17.512C54.3063 17.656 54.3183 17.808 54.3183 17.968C54.3103 18.432 54.3063 18.9 54.3063 19.372C54.3063 19.844 54.3023 20.316 54.2943 20.788C54.2943 20.948 54.2903 21.092 54.2823 21.22C54.2823 21.34 54.2703 21.468 54.2463 21.604C54.3743 21.596 54.4983 21.592 54.6183 21.592C54.7463 21.584 54.8743 21.576 55.0023 21.568V22.06H52.5543V21.7C52.8023 21.7 52.9703 21.64 53.0583 21.52C53.1543 21.392 53.2103 21.22 53.2263 21.004C53.2503 20.78 53.2623 20.524 53.2623 20.236L53.2743 18.556C53.2823 17.868 53.1823 17.348 52.9743 16.996C52.7663 16.644 52.4263 16.472 51.9543 16.48C51.7063 16.48 51.4623 16.536 51.2223 16.648C50.9823 16.752 50.7783 16.888 50.6103 17.056C50.6103 17.152 50.6103 17.256 50.6103 17.368C50.6183 17.472 50.6223 17.584 50.6223 17.704V20.788C50.6223 20.948 50.6183 21.092 50.6103 21.22C50.6103 21.34 50.5983 21.468 50.5743 21.604C50.7023 21.596 50.8263 21.592 50.9463 21.592C51.0743 21.584 51.2023 21.576 51.3303 21.568V22.06H48.8823Z" fill="#091C2C"/>
<path d="M44.8387 22.252C44.2787 22.252 43.7707 22.124 43.3147 21.868C42.8587 21.604 42.4947 21.244 42.2227 20.788C41.9587 20.324 41.8267 19.796 41.8267 19.204C41.8267 18.572 41.9587 18.004 42.2227 17.5C42.4867 16.996 42.8467 16.6 43.3027 16.312C43.7587 16.016 44.2707 15.868 44.8387 15.868C45.3987 15.868 45.9067 16.004 46.3627 16.276C46.8187 16.54 47.1827 16.9 47.4547 17.356C47.7267 17.812 47.8627 18.332 47.8627 18.916C47.8627 19.532 47.7267 20.096 47.4547 20.608C47.1907 21.112 46.8307 21.512 46.3747 21.808C45.9187 22.104 45.4067 22.252 44.8387 22.252ZM44.9347 21.772C45.3587 21.772 45.6947 21.652 45.9427 21.412C46.1907 21.172 46.3667 20.86 46.4707 20.476C46.5827 20.092 46.6387 19.688 46.6387 19.264C46.6387 18.904 46.6027 18.552 46.5307 18.208C46.4667 17.856 46.3627 17.54 46.2187 17.26C46.0747 16.972 45.8867 16.744 45.6547 16.576C45.4307 16.408 45.1587 16.324 44.8387 16.324C44.4227 16.324 44.0827 16.444 43.8187 16.684C43.5547 16.924 43.3587 17.236 43.2307 17.62C43.1107 18.004 43.0507 18.416 43.0507 18.856C43.0507 19.352 43.1187 19.824 43.2547 20.272C43.3907 20.712 43.5987 21.072 43.8787 21.352C44.1587 21.632 44.5107 21.772 44.9347 21.772Z" fill="#091C2C"/>
<path d="M40.2401 16.336C40.1601 15.584 39.8961 15 39.4481 14.584C39.0081 14.168 38.4401 13.96 37.7441 13.96C37.3201 13.96 36.9201 14.052 36.5441 14.236C36.1761 14.412 35.8521 14.668 35.5721 15.004C35.2921 15.34 35.0721 15.744 34.9121 16.216C34.7521 16.688 34.6721 17.22 34.6721 17.812C34.6721 18.564 34.8161 19.228 35.1041 19.804C35.3921 20.38 35.7801 20.828 36.2681 21.148C36.7561 21.468 37.2961 21.628 37.8881 21.628C38.4081 21.628 38.9201 21.512 39.4241 21.28C39.9281 21.04 40.3401 20.696 40.6601 20.248L40.9721 20.5C40.6281 20.972 40.2561 21.336 39.8561 21.592C39.4561 21.848 39.0561 22.02 38.6561 22.108C38.2641 22.204 37.9041 22.252 37.5761 22.252C36.9761 22.252 36.4241 22.144 35.9201 21.928C35.4241 21.712 34.9921 21.412 34.6241 21.028C34.2641 20.636 33.9841 20.184 33.7841 19.672C33.5921 19.152 33.4961 18.592 33.4961 17.992C33.4961 17.424 33.5801 16.872 33.7481 16.336C33.9241 15.8 34.1841 15.316 34.5281 14.884C34.8721 14.452 35.3041 14.108 35.8241 13.852C36.3521 13.596 36.9641 13.468 37.6601 13.468C38.1081 13.468 38.5321 13.528 38.9321 13.648C39.3321 13.768 39.7161 13.952 40.0841 14.2L40.0241 13.552H40.6721V16.336H40.2401Z" fill="#091C2C"/>
<path d="M24.7 22.252C24.348 22.252 24.004 22.208 23.668 22.12C23.332 22.04 23.028 21.908 22.756 21.724C22.492 21.532 22.28 21.288 22.12 20.992C21.96 20.688 21.88 20.324 21.88 19.9C21.88 19.38 22.048 18.92 22.384 18.52C22.728 18.12 23.188 17.796 23.764 17.548C23.556 17.276 23.384 17.024 23.248 16.792C23.112 16.552 23.012 16.316 22.948 16.084C22.884 15.844 22.852 15.6 22.852 15.352C22.86 14.776 23.072 14.32 23.488 13.984C23.904 13.64 24.432 13.468 25.072 13.468C25.48 13.468 25.832 13.544 26.128 13.696C26.432 13.84 26.664 14.04 26.824 14.296C26.992 14.544 27.076 14.828 27.076 15.148C27.076 15.444 27.012 15.728 26.884 16C26.756 16.272 26.548 16.536 26.26 16.792C25.972 17.04 25.588 17.288 25.108 17.536C25.324 17.76 25.56 18.008 25.816 18.28C26.08 18.552 26.344 18.82 26.608 19.084C26.872 19.34 27.112 19.572 27.328 19.78C27.368 19.636 27.396 19.5 27.412 19.372C27.436 19.236 27.448 19.116 27.448 19.012C27.448 18.828 27.42 18.648 27.364 18.472C27.316 18.288 27.224 18.136 27.088 18.016C26.96 17.888 26.776 17.82 26.536 17.812V17.416H28.636V17.908L27.64 17.86C27.768 17.964 27.86 18.1 27.916 18.268C27.972 18.436 28.004 18.632 28.012 18.856C28.02 19.008 28.004 19.204 27.964 19.444C27.932 19.676 27.868 19.92 27.772 20.176C27.86 20.256 27.952 20.344 28.048 20.44C28.152 20.528 28.26 20.62 28.372 20.716C28.732 21.036 29.04 21.276 29.296 21.436C29.56 21.588 29.756 21.664 29.884 21.664V22.06H28.768C28.696 22.06 28.532 21.988 28.276 21.844C28.028 21.692 27.696 21.432 27.28 21.064C27.024 21.392 26.684 21.672 26.26 21.904C25.844 22.136 25.324 22.252 24.7 22.252ZM24.844 21.652C25.348 21.668 25.764 21.588 26.092 21.412C26.428 21.228 26.696 21 26.896 20.728C26.84 20.672 26.784 20.62 26.728 20.572C26.672 20.516 26.612 20.46 26.548 20.404C26.012 19.876 25.536 19.408 25.12 19C24.712 18.592 24.364 18.224 24.076 17.896C23.82 18.048 23.62 18.236 23.476 18.46C23.332 18.684 23.228 18.908 23.164 19.132C23.108 19.356 23.08 19.552 23.08 19.72C23.08 20.16 23.164 20.52 23.332 20.8C23.508 21.08 23.728 21.288 23.992 21.424C24.264 21.56 24.548 21.636 24.844 21.652ZM24.844 17.248C25.292 16.952 25.624 16.624 25.84 16.264C26.056 15.896 26.164 15.536 26.164 15.184C26.164 14.8 26.064 14.484 25.864 14.236C25.664 13.98 25.38 13.852 25.012 13.852C24.684 13.852 24.408 13.976 24.184 14.224C23.968 14.464 23.86 14.808 23.86 15.256C23.86 15.6 23.952 15.94 24.136 16.276C24.328 16.612 24.564 16.936 24.844 17.248Z" fill="#091C2C"/>
</svg>
